<?xml version="1.0" encoding="UTF-8"?>
<svg version="1.1" xmlns="http://www.w3.org/2000/svg" width="1000" height="1000">
<path d="M0 0 C0.495 4.455 0.495 4.455 1 9 C2.02706055 8.51394287 3.05412109 8.02788574 4.11230469 7.52709961 C10.31557421 5.21713135 16.66373557 5.5516656 23.203125 5.56640625 C24.57216652 5.56183785 25.94120575 5.55653033 27.3102417 5.55052185 C30.16460558 5.54163228 33.01868896 5.54396952 35.87304688 5.55395508 C39.52725404 5.56549511 43.18050202 5.54513714 46.83458328 5.51603794 C49.65535595 5.4976904 52.47589743 5.49796443 55.29671478 5.50367546 C57.29755269 5.50390278 59.2983689 5.48701589 61.2991333 5.46986389 C63.12187775 5.48393532 63.12187775 5.48393532 64.98144531 5.49829102 C66.04985657 5.49845718 67.11826782 5.49862335 68.21905518 5.49879456 C71.69215131 6.12474537 72.84503731 7.25866153 75 10 C76.01171875 12.83984375 76.01171875 12.83984375 76.6875 15.9375 C77.03361328 17.46697266 77.03361328 17.46697266 77.38671875 19.02734375 C77.58910156 20.00832031 77.79148437 20.98929687 78 22 C78.24876137 23.0619886 78.24876137 23.0619886 78.50254822 24.14543152 C79.16785084 27.96319226 79.36534673 31.78223743 79.57250977 35.64575195 C79.62142365 36.5047963 79.67033752 37.36384064 79.72073364 38.24891663 C79.88100953 41.07852578 80.03623325 43.90838805 80.19140625 46.73828125 C80.30176675 48.70413433 80.41244308 50.66996971 80.52342224 52.63578796 C80.81426216 57.80261264 81.10081468 62.96966648 81.38647461 68.13677979 C81.67888849 73.4122952 81.97535708 78.68758258 82.27148438 83.96289062 C82.85162456 94.30837461 83.42723556 104.65410523 84 115 C86.21012321 113.91367146 88.41806908 112.82324924 90.625 111.73046875 C91.24246094 111.42749878 91.85992188 111.12452881 92.49609375 110.81237793 C96.46906159 108.84026988 100.24571492 106.68423011 104 104.3125 C124.37426262 92.17522173 154.54812947 93.36121089 177.05273438 98.50390625 C185.28608622 100.60147031 192.73936366 104.24426736 200.25 108.125 C201.23564941 108.63003052 201.23564941 108.63003052 202.24121094 109.14526367 C206.87964946 111.63894839 206.87964946 111.63894839 208 115 C208.84304688 115.41378906 208.84304688 115.41378906 209.703125 115.8359375 C220.84449055 121.48241188 227.43785517 135.02143783 232 146 C232.43054688 147.02996094 232.86109375 148.05992187 233.3046875 149.12109375 C241.18231083 170.31017548 239.13395998 195.886099 238.97949219 218.14233398 C238.9025096 230.37952587 239.04554779 242.57854762 239.4921875 254.80859375 C240.06197144 270.64482169 240.1544719 286.46661987 240.13037109 302.31201172 C240.12460323 306.15114616 240.12802205 309.9902117 240.13394356 313.8293438 C240.13759675 316.86671447 240.13639021 319.90406937 240.13381577 322.94144058 C240.1331633 324.35642633 240.13391367 325.77141366 240.13629532 327.18639755 C240.14237015 331.79223027 240.09634878 336.39530207 240 341 C239.98019199 342.12666958 239.98019199 342.12666958 239.95998383 343.27610016 C239.90973269 345.59959923 239.82986079 347.92033432 239.74169922 350.24267578 C239.72811434 350.95865873 239.71452946 351.67464169 239.70053291 352.41232109 C239.53439646 355.94334147 239.23164596 357.71871882 236.9536438 360.48483276 C236.30894135 360.98483795 235.66423889 361.48484314 235 362 C236.32 362.33 237.64 362.66 239 363 C234.2865346 369.81515608 228.73367033 375.60014943 222.875 381.4375 C221.53501953 382.80165039 221.53501953 382.80165039 220.16796875 384.19335938 C219.30558594 385.05638672 218.44320312 385.91941406 217.5546875 386.80859375 C216.38655518 387.98119751 216.38655518 387.98119751 215.19482422 389.17749023 C211.8358152 391.96670073 208.99467513 392.13324459 204.75 392.0625 C202.89375 392.0315625 202.89375 392.0315625 201 392 C201.47202486 387.75177626 203.96655518 385.80010291 207 383 C202.7011666 383 200.17536582 383.03474382 196.79296875 385.8125 C195.41780108 387.24124563 194.07206194 388.69907772 192.76171875 390.1875 C190.14504366 392.87960031 188.20852448 392.9925527 184.5 393.125 C181 393 181 393 178 392 C178.56371414 388.73045798 179.49962266 387.17424117 182 385 C179.2184187 384.05307871 177.85218534 383.59550826 175 384 C172.37887594 385.83564063 170.19280526 387.86975866 167.91796875 390.1171875 C166 392 166 392 164 393 C162.12137125 392.91255632 160.24544819 392.75824458 158.375 392.5625 C157.37210938 392.46066406 156.36921875 392.35882812 155.3359375 392.25390625 C154.17964844 392.12822266 154.17964844 392.12822266 153 392 C153.69378511 388.73988358 154.45893991 387.20961747 157 385 C154.36 384.34 151.72 383.68 149 383 C148.731875 383.61875 148.46375 384.2375 148.1875 384.875 C147 387 147 387 144 389 C141.08203125 389.1953125 141.08203125 389.1953125 137.8125 389.125 C136.72582031 389.10695313 135.63914062 389.08890625 134.51953125 389.0703125 C133.27236328 389.03550781 133.27236328 389.03550781 132 389 C133.55194754 385.67240077 135.30621949 383.51419515 138 381 C135.03 380.67 132.06 380.34 129 380 C129.350625 379.175 129.70125 378.35 130.0625 377.5 C131.23872732 373.10875135 130.90258925 370.43773047 130 366 C129.34 365.67 128.68 365.34 128 365 C127.47220532 358.40256648 128.28751487 355.56872769 132 350 C132.34020065 346.96821185 132.24294726 344.0368408 132 341 C131.34 341 130.68 341 130 341 C129.91866209 339.08404032 129.86065633 337.16708068 129.8125 335.25 C129.77769531 334.18265625 129.74289062 333.1153125 129.70703125 332.015625 C130.0382471 328.60630985 130.90837372 327.60386129 133 325 C133.56689282 322.65147774 133.56689282 322.65147774 133.6875 320.25 C133.78611328 319.05117188 133.78611328 319.05117188 133.88671875 317.828125 C133.92410156 317.22484375 133.96148438 316.6215625 134 316 C132.68 316 131.36 316 130 316 C130.39032435 303.7633315 130.39032435 303.7633315 135 299 C134.67 298.01 134.34 297.02 134 296 C134.27769908 293.6593935 134.60539977 291.32375692 135 289 C133.68 289 132.36 289 131 289 C132.36510759 278.7437311 132.36510759 278.7437311 135.1875 275.4375 C137.80417279 271.91852624 136.97215862 269.20928658 136.359375 265.01171875 C136.24078125 264.34785156 136.1221875 263.68398438 136 263 C135.34 263.33 134.68 263.66 134 264 C133.94610913 262.04196493 133.90725783 260.08351091 133.875 258.125 C133.85179687 257.03445313 133.82859375 255.94390625 133.8046875 254.8203125 C134 252 134 252 136 250 C136.24287489 247.55987051 136.24287489 247.55987051 136.125 244.875 C136.10695313 243.96492187 136.08890625 243.05484375 136.0703125 242.1171875 C136.04710937 241.41851562 136.02390625 240.71984375 136 240 C135.34 240.33 134.68 240.66 134 241 C133.94392578 239.64068359 133.94392578 239.64068359 133.88671875 238.25390625 C133.54043358 231.83744566 133.07714022 226.09789325 130.75 220.08984375 C129.93638236 217.82273211 129.49781335 215.61701633 129.0625 213.25 C128.25126776 209.25624129 126.61457352 207.13748823 124 204 C124 202.33333333 124 200.66666667 124 199 C122.10415891 196.68622853 122.10415891 196.68622853 120 195 C119.67 195.33 119.34 195.66 119 196 C115.83379087 196.34229288 114.39516153 196.25632099 111.6875 194.5 C111.130625 194.005 110.57375 193.51 110 193 C110.165 192.38125 110.33 191.7625 110.5 191.125 C111.07634644 189.03936614 111.07634644 189.03936614 111 187 C109.0399719 185.36323743 109.0399719 185.36323743 107 184 C108.58667578 180.09714233 111.13350481 177.66479018 114.125 174.75 C115.03507813 173.85796875 115.94515625 172.9659375 116.8828125 172.046875 C117.93082031 171.03367187 117.93082031 171.03367187 119 170 C113.53381527 169.81072768 111.36628003 170.59430158 107 174 C106.071875 174.65935547 106.071875 174.65935547 105.125 175.33203125 C88.07235112 188.48788341 83.92220774 214.28120163 79.6640625 233.98974609 C79.10332693 236.53160991 78.50692473 239.05719432 77.875 241.58203125 C71.30601932 268.09035651 70.32013208 295.15626993 69.85650635 322.31561279 C69.73876634 328.99609276 69.5900138 335.67597302 69.44348717 342.3558712 C69.39538817 344.66587672 69.35480458 346.97591497 69.31562805 349.28608704 C69.2884192 350.6813683 69.26109725 352.07664737 69.23364258 353.47192383 C69.21239822 354.68858231 69.19115387 355.90524078 69.16926575 357.1587677 C69 360 69 360 68 362 C68.99 362.33 69.98 362.66 71 363 C66.20746925 368.80571678 61.01871952 374.13548712 55.68505859 379.4453125 C54.23546127 380.88948432 52.79136942 382.33901084 51.34765625 383.7890625 C50.43371094 384.70171875 49.51976562 385.614375 48.578125 386.5546875 C47.74700195 387.38468262 46.91587891 388.21467773 46.05957031 389.06982422 C43.03824581 391.90133104 41.4108378 392.12015483 37.375 392.0625 C36.55773437 392.05347656 35.74046875 392.04445313 34.8984375 392.03515625 C33.95871094 392.01775391 33.95871094 392.01775391 33 392 C33.78383567 388.13857796 35.42810432 385.98671756 38 383 C34.86474264 382.48812125 32.11976051 382.33253935 29 383 C26.17142996 385.32849136 24.11364536 388.02454091 22 391 C21 392 21 392 18.05859375 392.09765625 C16.26615234 392.08025391 16.26615234 392.08025391 14.4375 392.0625 C12.64119141 392.04896484 12.64119141 392.04896484 10.80859375 392.03515625 C9.88175781 392.02355469 8.95492187 392.01195312 8 392 C8.75567052 388.21369298 10.12597273 386.5958956 13 384 C10.36 383.67 7.72 383.34 5 383 C4.6596875 383.8353125 4.6596875 383.8353125 4.3125 384.6875 C2.56461312 387.76711022 0.74130919 389.74603466 -2 392 C-6.97168831 393.21947072 -11.90914341 393.08931327 -17 393 C-16.82374165 390.62051228 -16.30280227 389.29774151 -14.59765625 387.62109375 C-13.09350908 386.37884514 -11.54870149 385.18623944 -10 384 C-14.8477625 384.11850086 -18.63953173 384.21640991 -22.3125 387.625 C-25 390 -25 390 -27.3125 389.875 C-29 389 -29 389 -30 388 C-30.144375 386.865625 -30.28875 385.73125 -30.4375 384.5625 C-30.64847551 380.95941003 -30.64847551 380.95941003 -33 379 C-33.265625 377.125 -33.265625 377.125 -33.25 375 C-33.25773438 373.948125 -33.25773438 373.948125 -33.265625 372.875 C-33 371 -33 371 -31 369 C-30.75684344 366.33050591 -30.75684344 366.33050591 -30.875 363.375 C-30.90207031 361.87066406 -30.90207031 361.87066406 -30.9296875 360.3359375 C-30.95289063 359.56507813 -30.97609375 358.79421875 -31 358 C-31.66 358.33 -32.32 358.66 -33 359 C-33.08133791 357.08404032 -33.13934367 355.16708068 -33.1875 353.25 C-33.22230469 352.18265625 -33.25710938 351.1153125 -33.29296875 350.015625 C-32.96102602 346.59882788 -32.01403844 345.65681667 -30 343 C-29.85125768 340.39754111 -29.85125768 340.39754111 -30.3125 337.75 C-30.43238281 336.85796875 -30.55226563 335.9659375 -30.67578125 335.046875 C-30.78277344 334.37140625 -30.88976562 333.6959375 -31 333 C-31.66 333.33 -32.32 333.66 -33 334 C-33.44252057 326.98113208 -33.53206968 323.52345992 -29 318 C-28.64536013 314.64135185 -28.76480126 311.36464861 -29 308 C-29.66 308.33 -30.32 308.66 -31 309 C-31 304.71 -31 300.42 -31 296 C-30.34 296 -29.68 296 -29 296 C-29 295.34 -29 294.68 -29 294 C-28.34 293.67 -27.68 293.34 -27 293 C-27 289.7 -27 286.4 -27 283 C-27.66 283.33 -28.32 283.66 -29 284 C-29 276.08 -29 268.16 -29 260 C-29.66 260 -30.32 260 -31 260 C-31.08133791 258.08404032 -31.13934367 256.16708068 -31.1875 254.25 C-31.22230469 253.18265625 -31.25710938 252.1153125 -31.29296875 251.015625 C-30.96192238 247.60805434 -30.03073461 246.63563428 -28 244 C-27.8502656 241.62558262 -27.8502656 241.62558262 -28.3125 239.25 C-28.43238281 238.45078125 -28.55226563 237.6515625 -28.67578125 236.828125 C-28.78277344 236.22484375 -28.88976562 235.6215625 -29 235 C-29.66 235 -30.32 235 -31 235 C-31.05389087 233.04196493 -31.09274217 231.08351091 -31.125 229.125 C-31.14820313 228.03445313 -31.17140625 226.94390625 -31.1953125 225.8203125 C-31 223 -31 223 -29 221 C-28.75746187 218.78927023 -28.75746187 218.78927023 -28.875 216.375 C-28.90207031 215.14910156 -28.90207031 215.14910156 -28.9296875 213.8984375 C-28.95289063 213.27195312 -28.97609375 212.64546875 -29 212 C-29.66 212 -30.32 212 -31 212 C-31.08133791 210.08404032 -31.13934367 208.16708068 -31.1875 206.25 C-31.22230469 205.18265625 -31.25710938 204.1153125 -31.29296875 203.015625 C-30.96188933 199.60771421 -30.06117216 198.61940629 -28 196 C-27.64042111 193.64070358 -27.64042111 193.64070358 -27.8125 191.25 C-27.83957031 190.45078125 -27.86664062 189.6515625 -27.89453125 188.828125 C-27.92933594 188.22484375 -27.96414063 187.6215625 -28 187 C-28.99 187 -29.98 187 -31 187 C-31.05389087 185.04196493 -31.09274217 183.08351091 -31.125 181.125 C-31.14820313 180.03445313 -31.17140625 178.94390625 -31.1953125 177.8203125 C-31 175 -31 175 -29 173 C-28.75712511 170.55987051 -28.75712511 170.55987051 -28.875 167.875 C-28.89304687 166.96492187 -28.91109375 166.05484375 -28.9296875 165.1171875 C-28.95289063 164.41851562 -28.97609375 163.71984375 -29 163 C-29.66 163.33 -30.32 163.66 -31 164 C-31.08133791 162.08404032 -31.13934367 160.16708068 -31.1875 158.25 C-31.22230469 157.18265625 -31.25710938 156.1153125 -31.29296875 155.015625 C-30.96102602 151.59882788 -30.01403844 150.65681667 -28 148 C-27.85125768 145.39754111 -27.85125768 145.39754111 -28.3125 142.75 C-28.43238281 141.85796875 -28.55226563 140.9659375 -28.67578125 140.046875 C-28.78277344 139.37140625 -28.88976562 138.6959375 -29 138 C-29.66 138.33 -30.32 138.66 -31 139 C-31.10841951 137.08458862 -31.18578079 135.16740227 -31.25 133.25 C-31.29640625 132.18265625 -31.3428125 131.1153125 -31.390625 130.015625 C-30.90784461 126.28856041 -29.62743812 125.54533067 -27 123 C-26.51973083 120.4149692 -26.51973083 120.4149692 -26.75 117.75 C-26.80414062 116.41195312 -26.80414062 116.41195312 -26.859375 115.046875 C-26.90578125 114.37140625 -26.9521875 113.6959375 -27 113 C-27.99 113.495 -27.99 113.495 -29 114 C-29.05389087 112.04196493 -29.09274217 110.08351091 -29.125 108.125 C-29.14820313 107.03445313 -29.17140625 105.94390625 -29.1953125 104.8203125 C-29 102 -29 102 -27 100 C-26.75712511 97.55987051 -26.75712511 97.55987051 -26.875 94.875 C-26.90207031 93.50988281 -26.90207031 93.50988281 -26.9296875 92.1171875 C-26.95289063 91.41851562 -26.97609375 90.71984375 -27 90 C-27.99 90.495 -27.99 90.495 -29 91 C-29.10823773 88.75106046 -29.18569645 86.50062425 -29.25 84.25 C-29.29640625 82.99703125 -29.3428125 81.7440625 -29.390625 80.453125 C-28.92731554 76.35746934 -27.90105193 75.71973619 -25 73 C-24.51973083 70.4149692 -24.51973083 70.4149692 -24.75 67.75 C-24.78609375 66.85796875 -24.8221875 65.9659375 -24.859375 65.046875 C-24.90578125 64.37140625 -24.9521875 63.6959375 -25 63 C-25.99 63.495 -25.99 63.495 -27 64 C-27.05386629 61.87527424 -27.09273071 59.75016348 -27.125 57.625 C-27.14820313 56.44164062 -27.17140625 55.25828125 -27.1953125 54.0390625 C-27 51 -27 51 -25 49 C-24.75684344 46.33050591 -24.75684344 46.33050591 -24.875 43.375 C-24.89304687 42.37210937 -24.91109375 41.36921875 -24.9296875 40.3359375 C-24.95289063 39.56507813 -24.97609375 38.79421875 -25 38 C-25.99 38.495 -25.99 38.495 -27 39 C-27.96525953 33.99546871 -28.66540309 28.79064174 -25.94073486 24.22503662 C-22.44206422 19.76786473 -18.23218171 16.0016484 -14.0625 12.1875 C-12.81545514 10.99717583 -11.57128181 9.80383565 -10.33007812 8.60742188 C-1.32854898 0 -1.32854898 0 0 0 Z " fill="#000000" transform="translate(676,267)"/>
<path d="M0 0 C0.99 1.98 0.99 1.98 2 4 C2.73169907 3.99333817 3.46339813 3.98667633 4.2172699 3.97981262 C11.14571988 3.91945834 18.07413008 3.87390273 25.00277615 3.84456348 C28.56405886 3.82897223 32.12512258 3.80785545 35.6862793 3.77368164 C39.78957099 3.73455615 43.89263614 3.72023683 47.99609375 3.70703125 C49.26206894 3.69154739 50.52804413 3.67606354 51.8323822 3.66011047 C66.07339361 3.65742265 66.07339361 3.65742265 71 7 C75.83407867 16.05827096 74.16271547 29.15328672 74.24609375 39.140625 C74.26095233 40.49172026 74.2763433 41.84280976 74.29222107 43.19389343 C74.32567074 46.0599829 74.35740381 48.9260832 74.38787842 51.79220581 C74.63974991 74.95399111 75.01235901 98.11367836 75.75808716 121.26525879 C75.83527323 123.68967923 75.90801533 126.11424574 75.9760437 128.53894043 C75.9250729 147.24336493 75.9250729 147.24336493 81 165 C81.08991092 166.54227856 81.11756961 168.08840895 81.11352539 169.63330078 C81.11344986 170.59414581 81.11337433 171.55499084 81.11329651 172.54495239 C81.10813522 173.58457123 81.10297394 174.62419006 81.09765625 175.6953125 C81.09553383 177.28918289 81.09553383 177.28918289 81.09336853 178.91525269 C81.08775834 182.31853009 81.07520409 185.72174238 81.0625 189.125 C81.05748631 191.42838447 81.05292318 193.73176997 81.04882812 196.03515625 C81.0377856 201.69012649 81.02103752 207.34505859 81 213 C81.75400085 212.9297612 82.50800171 212.8595224 83.28485107 212.78715515 C84.27462952 212.69585831 85.26440796 212.60456146 86.28417969 212.51049805 C87.75549347 212.37420235 87.75549347 212.37420235 89.25653076 212.2351532 C92.25948918 211.97775819 95.23602306 211.83354732 98.25 211.8125 C99.18328125 211.79832031 100.1165625 211.78414062 101.078125 211.76953125 C104.56611082 212.04465313 107.65319658 213.00566342 111 214 C111.11578916 222.5534316 111.2046609 231.10653648 111.25906086 239.66055775 C111.28516878 243.63246631 111.32058689 247.60383922 111.37719727 251.57543945 C111.43147709 255.40746518 111.46141153 259.23897537 111.47438622 263.07135582 C111.4836336 264.53427945 111.50169202 265.99717447 111.52865028 267.45987892 C111.5648917 269.50748537 111.5699481 271.55295514 111.56762695 273.60083008 C111.57873001 274.76665115 111.58983307 275.93247223 111.60127258 277.13362122 C111 280 111 280 108.61474609 281.8671875 C105.99211654 283.00341543 103.97330025 283.49256191 101.13671875 283.73046875 C100.25048828 283.81103516 99.36425781 283.89160156 98.45117188 283.97460938 C97.0831543 284.07999023 97.0831543 284.07999023 95.6875 284.1875 C94.75615234 284.26935547 93.82480469 284.35121094 92.86523438 284.43554688 C90.57753768 284.6349871 88.28950552 284.82275822 86 285 C86.02284058 286.20269531 86.02284058 286.20269531 86.04614258 287.4296875 C86.16676174 299.00912676 85.31075581 310.44084749 84.22460938 321.96240234 C84.07026191 323.60774265 83.91596455 325.25308766 83.76171875 326.8984375 C83.68549286 327.69841156 83.60926697 328.49838562 83.5307312 329.32260132 C83.13439025 333.69508011 82.95705263 337.95611564 83.08203125 342.3515625 C83.10372529 354.44490732 78.43228996 360.68034914 70.23632812 369.07373047 C53.3084711 385.92006679 53.3084711 385.92006679 48.1796875 386.09765625 C47.08914063 386.08605469 45.99859375 386.07445312 44.875 386.0625 C43.77929688 386.05347656 42.68359375 386.04445313 41.5546875 386.03515625 C40.71164062 386.02355469 39.86859375 386.01195312 39 386 C40.55194754 382.67240077 42.30621949 380.51419515 45 378 C41.54306311 377.48996013 38.44394607 377.3388413 35 378 C32.67648458 379.83700316 30.88876033 381.85926596 28.94140625 384.0859375 C25.24178127 387.73345509 21.06793791 387.91383592 16 388.125 C15.34 388.08375 14.68 388.0425 14 388 C14.4793247 383.68607774 15.7457985 381.83430453 19 379 C14.82768915 378.93377284 11.32051933 378.99353676 7.9140625 381.58984375 C6.71206626 382.82987785 5.54131371 384.10127402 4.41015625 385.40625 C3 387 3 387 1 388 C-1.04055005 388.07065617 -3.08334257 388.08421976 -5.125 388.0625 C-6.22070312 388.05347656 -7.31640625 388.04445313 -8.4453125 388.03515625 C-9.28835938 388.02355469 -10.13140625 388.01195312 -11 388 C-10.24432948 384.21369298 -8.87402727 382.5958956 -6 380 C-10.51617599 379.92345464 -14.59085217 379.89771304 -19 381 C-19.33 378.03 -19.66 375.06 -20 372 C-20.66 372 -21.32 372 -22 372 C-22.05410687 370.22950311 -22.09284119 368.45853151 -22.125 366.6875 C-22.14820313 365.70136719 -22.17140625 364.71523438 -22.1953125 363.69921875 C-22 361 -22 361 -20 358 C-19.75849227 355.48415109 -19.75849227 355.48415109 -19.875 352.8125 C-19.89304687 351.91144531 -19.91109375 351.01039063 -19.9296875 350.08203125 C-19.95289063 349.39496094 -19.97609375 348.70789063 -20 348 C-20.66 348 -21.32 348 -22 348 C-22.2493357 346.39884424 -22.47378648 344.79379841 -22.6875 343.1875 C-22.87892578 341.84751953 -22.87892578 341.84751953 -23.07421875 340.48046875 C-23 338 -23 338 -21.51953125 336.17578125 C-21.01808594 335.78777344 -20.51664063 335.39976562 -20 335 C-20.33 334.278125 -20.66 333.55625 -21 332.8125 C-22.00603529 329.98302573 -22.16977402 327.97104534 -22 325 C-22.66 325 -23.32 325 -24 325 C-24.16873478 323.56274129 -24.33490737 322.12518162 -24.5 320.6875 C-24.5928125 319.88699219 -24.685625 319.08648438 -24.78125 318.26171875 C-25 316 -25 316 -25 313 C-26.98 312.34 -28.96 311.68 -31 311 C-30.38722388 308.03824877 -29.74627478 306.61941217 -28 304 C-30.14054182 302.94949548 -30.14054182 302.94949548 -33 303 C-35.00746879 304.36128785 -36.69487071 305.88202751 -38.44921875 307.5546875 C-41.41785384 310.3214255 -43.68300268 310.10833718 -47.625 310.0625 C-49.12933594 310.04896484 -49.12933594 310.04896484 -50.6640625 310.03515625 C-51.82035156 310.01775391 -51.82035156 310.01775391 -53 310 C-53 306 -53 306 -51 303.75 C-50.01 302.88375 -50.01 302.88375 -49 302 C-51.99948327 301.63164241 -54.08708413 301.38320821 -57 302 C-58.69750403 303.55116045 -58.69750403 303.55116045 -60.1875 305.5 C-62.59982412 308.30122684 -63.59005445 308.94274235 -67.328125 309.46484375 C-70.57743326 309.44022778 -73.76574727 309.30640289 -77 309 C-75.44805246 305.67240077 -73.69378051 303.51419515 -71 301 C-74.45732908 300.48990227 -77.55715327 300.32822503 -81 301 C-83.26557922 302.89560389 -85.04887098 304.98432109 -86.984375 307.2109375 C-89.39643253 309.35187228 -90.62571862 309.59416018 -93.8125 309.625 C-97.1272506 309.40206102 -98.0998814 308.9334124 -101 307 C-99.84826645 304.53199953 -98.95216435 302.95216435 -97 301 C-100.1563555 299.87885396 -100.1563555 299.87885396 -104 300 C-105.95596941 301.59635172 -107.50591502 303.38933298 -109.18359375 305.2734375 C-113.01419025 308.91456363 -117.92772909 309.07386824 -123 309.125 C-123.99 309.08375 -124.98 309.0425 -126 309 C-124.34908222 304.70761377 -121.26245434 302.1206085 -118 299 C-124.17225255 299.81177018 -128.03191295 301.25374975 -132.4921875 305.66015625 C-135.43642363 308.27640753 -138.45148844 308.11101963 -142.1875 308.0625 C-143.08855469 308.05347656 -143.98960937 308.04445313 -144.91796875 308.03515625 C-145.94857422 308.01775391 -145.94857422 308.01775391 -147 308 C-147.1875 303.2265625 -147.1875 303.2265625 -145.5 301.1875 C-145.005 300.795625 -144.51 300.40375 -144 300 C-147.25639659 299.05728998 -147.25639659 299.05728998 -151 299 C-153.96050874 301.29199403 -153.96050874 301.29199403 -156 304 C-159 303 -159 303 -159.9140625 301.25 C-163.39720785 290.22641911 -163.39720785 290.22641911 -163 285 C-161.0625 282.4375 -161.0625 282.4375 -159 281 C-159.33 280.67 -159.66 280.34 -160 280 C-160.23192865 278.48530552 -160.41215238 276.96245438 -160.5625 275.4375 C-160.64628906 274.61121094 -160.73007812 273.78492188 -160.81640625 272.93359375 C-160.87699219 272.29550781 -160.93757813 271.65742187 -161 271 C-161.66 271 -162.32 271 -163 271 C-163 267.04 -163 263.08 -163 259 C-162.34 259 -161.68 259 -161 259 C-160.690625 258.360625 -160.38125 257.72125 -160.0625 257.0625 C-159 255 -159 255 -158 254 C-157.92794489 252.31391034 -157.91613932 250.62499341 -157.9375 248.9375 C-157.95103516 247.55884766 -157.95103516 247.55884766 -157.96484375 246.15234375 C-157.97644531 245.44207031 -157.98804688 244.73179687 -158 244 C-158.66 244 -159.32 244 -160 244 C-160.63019694 234.98468271 -160.63019694 234.98468271 -158 230.875 C-157.34 230.25625 -156.68 229.6375 -156 229 C-156.33 228.67 -156.66 228.34 -157 228 C-157.07179964 226.48071962 -157.08392007 224.95832518 -157.0625 223.4375 C-157.05347656 222.61121094 -157.04445313 221.78492188 -157.03515625 220.93359375 C-157.02355469 220.29550781 -157.01195312 219.65742188 -157 219 C-157.99 219 -158.98 219 -160 219 C-160.02698189 217.37509046 -160.04638757 215.75005367 -160.0625 214.125 C-160.07410156 213.22007812 -160.08570313 212.31515625 -160.09765625 211.3828125 C-160 209 -160 209 -159 207 C-158.93003986 205.29297265 -158.91559846 203.58331997 -158.9375 201.875 C-158.94652344 200.96492187 -158.95554687 200.05484375 -158.96484375 199.1171875 C-158.97644531 198.41851562 -158.98804688 197.71984375 -159 197 C-159.66 197.33 -160.32 197.66 -161 198 C-161.02694851 196.04174127 -161.04637218 194.08337774 -161.0625 192.125 C-161.07410156 191.03445313 -161.08570313 189.94390625 -161.09765625 188.8203125 C-161 186 -161 186 -160 184 C-160.0870204 182.28766312 -160.24097162 180.57824594 -160.4375 178.875 C-160.53933594 177.96492187 -160.64117187 177.05484375 -160.74609375 176.1171875 C-160.82988281 175.41851562 -160.91367187 174.71984375 -161 174 C-161.66 174.33 -162.32 174.66 -163 175 C-163 167.74 -163 160.48 -163 153 C-163.66 153 -164.32 153 -165 153 C-165.05391993 151.20866022 -165.09275571 149.41686101 -165.125 147.625 C-165.14820313 146.62726563 -165.17140625 145.62953125 -165.1953125 144.6015625 C-165 142 -165 142 -163 140 C-163.33 139.67 -163.66 139.34 -164 139 C-164.23192865 137.48530552 -164.41215238 135.96245438 -164.5625 134.4375 C-164.64628906 133.61121094 -164.73007812 132.78492188 -164.81640625 131.93359375 C-164.87699219 131.29550781 -164.93757813 130.65742188 -165 130 C-165.66 130 -166.32 130 -167 130 C-167 126.04 -167 122.08 -167 118 C-166.34 118 -165.68 118 -165 118 C-165 114.37 -165 110.74 -165 107 C-165.66 107 -166.32 107 -167 107 C-167.08082094 105.04233719 -167.13910778 103.08373272 -167.1875 101.125 C-167.22230469 100.03445313 -167.25710938 98.94390625 -167.29296875 97.8203125 C-167.19628906 96.88960938 -167.09960938 95.95890625 -167 95 C-165.515 94.01 -165.515 94.01 -164 93 C-164.33 89.37 -164.66 85.74 -165 82 C-165.66 82 -166.32 82 -167 82 C-167 78.04 -167 74.08 -167 70 C-165.515 69.505 -165.515 69.505 -164 69 C-164.33 65.37 -164.66 61.74 -165 58 C-165.66 58 -166.32 58 -167 58 C-167.96895282 54.06482401 -167.98658946 50.94289611 -167 47 C-163.49712888 41.55304519 -158.3308049 37.25545366 -153.625 32.875 C-152.33869432 31.63535125 -151.05481206 30.39318267 -149.7734375 29.1484375 C-138.99784791 18.75347618 -138.99784791 18.75347618 -128.92333984 18.84326172 C-125.22586868 18.9909765 -121.73282904 19.42927061 -118.078125 19.98828125 C-111.09858883 20.95025783 -104.18925178 21.2017964 -97.1484375 21.2734375 C-95.59224197 21.29016762 -95.59224197 21.29016762 -94.00460815 21.30723572 C-89.69690421 21.34611108 -85.38942021 21.37319525 -81.08154297 21.38085938 C-77.89511551 21.39036684 -74.70964923 21.42406245 -71.5234375 21.4609375 C-70.07026627 21.45336929 -70.07026627 21.45336929 -68.58773804 21.44564819 C-62.82951104 21.5296759 -59.28970167 21.99492308 -55 26 C-54.58497636 29.73521277 -54.64132312 32.45525216 -55.48144531 36.07348633 C-56.17947234 40.01286954 -56.3873556 43.93056833 -56.60546875 47.921875 C-56.67704948 49.211008 -56.67704948 49.211008 -56.75007629 50.52618408 C-56.84878722 52.34155981 -56.94531286 54.15705552 -57.03979492 55.97265625 C-57.18629469 58.72733616 -57.34982014 61.48068034 -57.51367188 64.234375 C-57.60782997 66.00515233 -57.7009617 67.7759846 -57.79296875 69.546875 C-57.84390182 70.35968933 -57.8948349 71.17250366 -57.9473114 72.00994873 C-58.18108686 76.96824304 -57.70638659 81.26108466 -56.44935608 86.06794739 C-55.8183422 88.78105638 -55.96834727 91.17656208 -56.25 93.9375 C-56.42742746 95.83619739 -56.60444523 97.73493428 -56.77902222 99.63389587 C-56.92902371 101.24002631 -57.08391511 102.8457061 -57.24319458 104.45094299 C-59.134733 123.81485597 -59.34400951 143.09250449 -59.31567383 162.52978516 C-59.30978353 166.93190467 -59.32710283 171.33361635 -59.3500185 175.73566818 C-59.36473728 179.16551137 -59.36563202 182.59525443 -59.36250877 186.0251236 C-59.36301922 187.65016767 -59.36820449 189.27521774 -59.37832069 190.90023041 C-59.39068261 193.15479402 -59.38390462 195.40853519 -59.37231445 197.66308594 C-59.37294388 198.93923767 -59.3735733 200.2153894 -59.3742218 201.5302124 C-58.9615771 205.35625744 -58.08233572 207.77410737 -56 211 C-53.25873273 211.85501432 -51.30713772 212.20209546 -48.5 212.375 C-47.72825439 212.44114502 -46.95650879 212.50729004 -46.16137695 212.57543945 C-30.15487205 213.76012887 -13.9723335 213.42373144 2 212 C2.06654785 211.23727783 2.1330957 210.47455566 2.20166016 209.6887207 C2.69121945 204.10744073 3.2663995 198.55440375 4 193 C3.46632813 193.3609375 2.93265625 193.721875 2.3828125 194.09375 C-3.58350217 197.80979374 -8.03025953 198.65477729 -15 198 C-13.38617243 194.59787701 -11.41396234 191.89675481 -9 189 C-11.97 189 -14.94 189 -18 189 C-19.80230168 185.17010894 -20.19622241 182.21878192 -20 178 C-20.66 178 -21.32 178 -22 178 C-23.1671568 174.49852959 -23.13357453 171.67329964 -23 168 C-22.67 167.34 -22.34 166.68 -22 166 C-21.34 166 -20.68 166 -20 166 C-20.33 162.7 -20.66 159.4 -21 156 C-21.66 156.33 -22.32 156.66 -23 157 C-23.08133791 155.08404032 -23.13934367 153.16708068 -23.1875 151.25 C-23.22230469 150.18265625 -23.25710938 149.1153125 -23.29296875 148.015625 C-22.96102602 144.59882788 -22.01403844 143.65681667 -20 141 C-19.85125768 138.39754111 -19.85125768 138.39754111 -20.3125 135.75 C-20.43238281 134.85796875 -20.55226563 133.9659375 -20.67578125 133.046875 C-20.83626953 132.03367187 -20.83626953 132.03367187 -21 131 C-21.66 131.33 -22.32 131.66 -23 132 C-23.05389087 130.04196493 -23.09274217 128.08351091 -23.125 126.125 C-23.14820313 125.03445313 -23.17140625 123.94390625 -23.1953125 122.8203125 C-23 120 -23 120 -21 118 C-20.75712511 115.55987051 -20.75712511 115.55987051 -20.875 112.875 C-20.89304687 111.96492188 -20.91109375 111.05484375 -20.9296875 110.1171875 C-20.95289063 109.41851562 -20.97609375 108.71984375 -21 108 C-21.99 108.495 -21.99 108.495 -23 109 C-23.02694851 107.04174127 -23.04637218 105.08337774 -23.0625 103.125 C-23.07410156 102.03445313 -23.08570313 100.94390625 -23.09765625 99.8203125 C-23 97 -23 97 -22 95 C-21.93049459 93.45976004 -21.91547643 91.91665012 -21.9375 90.375 C-21.94652344 89.55773437 -21.95554687 88.74046875 -21.96484375 87.8984375 C-21.97644531 87.27195312 -21.98804688 86.64546875 -22 86 C-22.99 86 -23.98 86 -25 86 C-25.02693575 83.87506859 -25.04636628 81.75004088 -25.0625 79.625 C-25.07410156 78.44164062 -25.08570313 77.25828125 -25.09765625 76.0390625 C-25 73 -25 73 -24 71 C-23.93049459 69.45976004 -23.91547643 67.91665012 -23.9375 66.375 C-23.94652344 65.55773437 -23.95554687 64.74046875 -23.96484375 63.8984375 C-23.97644531 63.27195312 -23.98804688 62.64546875 -24 62 C-24.99 62 -25.98 62 -27 62 C-27.08153933 60.41753293 -27.13943557 58.83383727 -27.1875 57.25 C-27.22230469 56.36828125 -27.25710938 55.4865625 -27.29296875 54.578125 C-26.94377857 51.50525146 -25.82368729 50.43158305 -24 48 C-23.63965477 45.41118198 -23.63965477 45.41118198 -23.8125 42.75 C-23.85310547 41.41195312 -23.85310547 41.41195312 -23.89453125 40.046875 C-23.92933594 39.37140625 -23.96414063 38.6959375 -24 38 C-24.99 38.33 -25.98 38.66 -27 39 C-28.06082376 34.25248627 -28.59237909 29.53285167 -25.89257812 25.23852539 C-22.19045847 20.66229415 -17.82048107 16.72896654 -13.5 12.75 C-12.19649216 11.50675875 -10.89567912 10.26068558 -9.59765625 9.01171875 C-6.42863593 5.97419947 -3.22537627 2.97756368 0 0 Z " fill="#000000" transform="translate(526,269)"/>
<path d="M0 0 C1.45194763 -0.00074776 1.45194763 -0.00074776 2.93322754 -0.00151062 C4.97373515 0.00081774 7.0142463 0.0104726 9.0546875 0.02709961 C12.12006452 0.05050496 15.18455727 0.0476732 18.25 0.04101562 C50.1776499 0.08611026 81.20167107 5.2524134 105.28515625 27.91015625 C125.99441878 49.3358842 132.2666547 77.16951937 131.9296875 105.9140625 C131.76635745 114.98663642 130.64121322 122.78262578 127.65625 131.36328125 C127.18837444 132.83580169 126.72094869 134.30846511 126.25390625 135.78125 C117.44197223 162.38710205 101.39428495 185.53868236 85.23925781 208.14013672 C82.3346302 212.21933768 79.46497263 216.32303217 76.59375 220.42578125 C76.00231201 221.26979492 75.41087402 222.11380859 74.80151367 222.98339844 C71.62925884 227.51707017 68.48563715 232.06826711 65.37304688 236.64306641 C57.79384064 247.77192272 49.6646905 258.45828123 41.45532227 269.1262207 C40.99287361 269.72727882 40.53042496 270.32833694 40.05396271 270.94760895 C38.92145312 272.41954689 37.78886001 273.89142058 36.65625 275.36328125 C37.47040878 275.36914749 38.28456757 275.37501373 39.12339783 275.38105774 C46.87370501 275.43945807 54.62370785 275.51179529 62.3737402 275.59899616 C66.35615372 275.6433347 70.33847347 275.68266591 74.32104492 275.7097168 C78.17921698 275.73612096 82.03702067 275.77676981 85.8949604 275.82646751 C87.351765 275.84288993 88.80863292 275.85455471 90.26551628 275.86089516 C98.21785567 275.8989339 105.95817781 276.35735974 113.81469727 277.64526367 C114.51142264 277.75262753 115.20814802 277.8599914 115.92598629 277.97060871 C121.97216881 279.06659614 126.07426565 281.38580081 129.90625 286.17578125 C134.17776758 293.95604541 134.25859857 302.02222083 134.78125 310.73828125 C134.82261078 311.4060257 134.86397156 312.07377014 134.90658569 312.76174927 C136.90926768 345.23697529 136.90926768 345.23697529 131.25561523 352.05151367 C129.62302346 353.75355618 127.94219171 355.37845189 126.21875 356.98828125 C125.07191487 358.08222522 123.92733495 359.17853892 122.78515625 360.27734375 C122.2452002 360.79458008 121.70524414 361.31181641 121.14892578 361.84472656 C119.44474814 363.52329101 119.44474814 363.52329101 117.37109375 366.26171875 C116.80519531 366.95523437 116.23929688 367.64875 115.65625 368.36328125 C114.99625 368.36328125 114.33625 368.36328125 113.65625 368.36328125 C113.65625 369.02328125 113.65625 369.68328125 113.65625 370.36328125 C112.03522032 372.07436814 110.36121537 373.73581431 108.65625 375.36328125 C108.07875 376.07226562 107.50125 376.78125 106.90625 377.51171875 C103.82769818 380.04511035 101.83336029 379.77036566 97.90625 379.61328125 C96.73578125 379.5771875 95.5653125 379.54109375 94.359375 379.50390625 C93.46734375 379.4575 92.5753125 379.41109375 91.65625 379.36328125 C93.20819754 376.03568202 94.96246949 373.8774764 97.65625 371.36328125 C94.20050134 370.85341669 91.09712104 370.68801652 87.65625 371.36328125 C85.59395836 373.12030351 85.59395836 373.12030351 83.84375 375.36328125 C81.27886848 378.36710126 80.23945559 379.27179802 76.26953125 379.89453125 C73.03131797 379.86652508 69.8743401 379.71648626 66.65625 379.36328125 C68.39184438 376.30532925 70.04097619 373.72948136 72.65625 371.36328125 C69.52620993 370.8522543 66.76855777 370.67947857 63.65625 371.36328125 C61.88066339 373.13469063 61.88066339 373.13469063 60.40625 375.36328125 C58.0957737 378.48050343 57.24115436 379.26980652 53.33203125 379.89453125 C50.07374698 379.86635149 46.89485774 379.7139275 43.65625 379.36328125 C44.41192052 375.57697423 45.78222273 373.95917685 48.65625 371.36328125 C44.89241386 370.81438848 42.78519218 370.55720353 39.62109375 372.81640625 C38.25704822 374.06743837 36.90297986 375.32942747 35.55859375 376.6015625 C32.52441713 379.4114468 29.76255359 381.41306661 25.5078125 381.3125 C23.54530622 381.08181944 21.59766039 380.73147977 19.65625 380.36328125 C18.96875 378.55078125 18.96875 378.55078125 18.65625 376.36328125 C20.09375 374.61328125 20.09375 374.61328125 21.65625 373.36328125 C19.67625 372.70328125 17.69625 372.04328125 15.65625 371.36328125 C15.02976563 372.00136719 14.40328125 372.63945313 13.7578125 373.296875 C12.53191406 374.53630859 12.53191406 374.53630859 11.28125 375.80078125 C10.46914062 376.62449219 9.65703125 377.44820312 8.8203125 378.296875 C5.3329314 381.62688331 3.26291539 381.47611812 -1.46875 381.42578125 C-2.56445312 381.41675781 -3.66015625 381.40773438 -4.7890625 381.3984375 C-5.63210937 381.38683594 -6.47515625 381.37523437 -7.34375 381.36328125 C-5.60815562 378.30532925 -3.95902381 375.72948136 -1.34375 373.36328125 C-4.7465385 373.00013781 -7.9527513 372.83921781 -11.34375 373.36328125 C-12.97841385 374.65459424 -12.97841385 374.65459424 -14.21875 376.36328125 C-16.27209356 378.90608461 -17.04411882 379.32389674 -20.375 379.76171875 C-23.38467662 379.74062289 -26.34595826 379.62522422 -29.34375 379.36328125 C-28.58807948 375.57697423 -27.21777727 373.95917685 -24.34375 371.36328125 C-27.41957629 370.92387749 -29.36714409 370.66411302 -32.34375 371.36328125 C-34.27222348 373.1460831 -34.27222348 373.1460831 -36.03125 375.36328125 C-38.6456439 378.33918453 -39.7624492 379.27230667 -43.73828125 379.89453125 C-46.97378107 379.86648791 -50.12833902 379.71619221 -53.34375 379.36328125 C-51.79180246 376.03568202 -50.03753051 373.8774764 -47.34375 371.36328125 C-52.77640338 370.65603353 -52.77640338 370.65603353 -57.5859375 372.88671875 C-58.97968444 374.13751729 -60.34621999 375.41950166 -61.6796875 376.734375 C-64.91530204 379.90163149 -67.5723487 379.46888322 -71.96875 379.42578125 C-73.15726563 379.41675781 -74.34578125 379.40773438 -75.5703125 379.3984375 C-76.48554688 379.38683594 -77.40078125 379.37523437 -78.34375 379.36328125 C-76.79180246 376.03568202 -75.03753051 373.8774764 -72.34375 371.36328125 C-75.82124979 370.86649557 -77.97766668 370.59273206 -81.34375 371.36328125 C-84.04866044 373.46710048 -86.22384418 375.73608581 -88.49609375 378.296875 C-90.34375 380.36328125 -90.34375 380.36328125 -92.34375 381.36328125 C-95.0161121 381.49743597 -97.66625488 381.40646666 -100.34375 381.36328125 C-101.03125 379.05078125 -101.03125 379.05078125 -101.34375 376.36328125 C-99.90625 374.55078125 -99.90625 374.55078125 -98.34375 373.36328125 C-102.24744481 371.64686301 -102.24744481 371.64686301 -106.34375 371.36328125 C-108.73202491 373.2450847 -110.49944894 375.26067843 -112.38671875 377.640625 C-113.35544922 378.49333984 -113.35544922 378.49333984 -114.34375 379.36328125 C-117.08203125 379.1171875 -117.08203125 379.1171875 -119.34375 378.36328125 C-119.446875 377.29078125 -119.55 376.21828125 -119.65625 375.11328125 C-120.02050998 371.43398767 -120.02050998 371.43398767 -121.96875 369.36328125 C-123.34375 367.36328125 -123.34375 367.36328125 -122.84375 364.17578125 C-122.12424134 358.68952774 -123.90022794 354.25032537 -126.34375 349.36328125 C-126.51171875 347.48828125 -126.51171875 347.48828125 -126.53125 345.36328125 C-126.54542969 344.66203125 -126.55960937 343.96078125 -126.57421875 343.23828125 C-126.34375 341.36328125 -126.34375 341.36328125 -124.34375 339.36328125 C-123.88212573 336.93075464 -123.88212573 336.93075464 -123.71875 334.23828125 C-123.64398438 333.32820313 -123.56921875 332.418125 -123.4921875 331.48046875 C-123.44320312 330.78179688 -123.39421875 330.083125 -123.34375 329.36328125 C-124.33375 329.36328125 -125.32375 329.36328125 -126.34375 329.36328125 C-127.33381496 325.07299977 -127.44358555 321.64611546 -126.34375 317.36328125 C-122.92055984 312.53120169 -118.32824698 308.6372474 -113.85595703 304.79858398 C-112.10064369 303.23871588 -112.10064369 303.23871588 -110.34375 300.36328125 C-109.68375 300.36328125 -109.02375 300.36328125 -108.34375 300.36328125 C-108.34375 299.70328125 -108.34375 299.04328125 -108.34375 298.36328125 C-107.68375 298.36328125 -107.02375 298.36328125 -106.34375 298.36328125 C-106.034375 297.52796875 -106.034375 297.52796875 -105.71875 296.67578125 C-104.34375 294.36328125 -104.34375 294.36328125 -101.40625 291.92578125 C-98.30744337 289.63861111 -98.30744337 289.63861111 -96.9453125 286.88671875 C-95.11789227 284.0074176 -93.62901634 283.03583524 -90.65625 281.42578125 C-66.38473416 267.57632841 -42.2629329 243.59658106 -25.2421875 221.765625 C-23.20964259 219.19357743 -21.05543618 216.7825489 -18.84375 214.36328125 C-14.97841655 210.11676439 -11.32976754 205.73315015 -7.71875 201.26953125 C-5.17710233 198.15935712 -2.57788887 195.10419504 0.03125 192.05078125 C4.31544931 187.02627827 8.41744057 181.88405763 12.45825195 176.66259766 C15.26413234 173.06164324 18.17253509 169.58717152 21.19042969 166.16235352 C29.97789505 156.17749071 37.0458837 145.38677578 43.65625 133.86328125 C44.03031982 133.21697754 44.40438965 132.57067383 44.78979492 131.90478516 C47.08361453 127.80173326 48.5266603 123.92870628 49.65625 119.36328125 C49.18727295 119.84796875 48.7182959 120.33265625 48.23510742 120.83203125 C46.11248795 123.01688762 43.9783531 125.19013415 41.84375 127.36328125 C41.10576172 128.12640625 40.36777344 128.88953125 39.60742188 129.67578125 C38.89521484 130.39765625 38.18300781 131.11953125 37.44921875 131.86328125 C36.46731567 132.86875 36.46731567 132.86875 35.46557617 133.89453125 C33.65625 135.36328125 33.65625 135.36328125 30.65625 135.36328125 C30.98625 131.73328125 31.31625 128.10328125 31.65625 124.36328125 C29.67625 125.35328125 29.67625 125.35328125 27.65625 126.36328125 C28.52340867 117.02748789 28.52340867 117.02748789 29.34375 112.92578125 C29.96765296 110.12476281 29.96765296 110.12476281 27.65625 107.36328125 C26.27713755 103.06369537 25.30974566 98.82883489 24.65625 94.36328125 C22.34625 94.03328125 20.03625 93.70328125 17.65625 93.36328125 C17.03125 90.98828125 17.03125 90.98828125 16.65625 88.36328125 C17.31625 87.70328125 17.97625 87.04328125 18.65625 86.36328125 C17.00625 85.37328125 15.35625 84.38328125 13.65625 83.36328125 C13.07875 84.02328125 12.50125 84.68328125 11.90625 85.36328125 C9.65625 87.36328125 9.65625 87.36328125 5.65625 87.36328125 C8.34820107 78.74903784 15.32130043 72.44140854 21.65625 66.36328125 C22.31625 65.70328125 22.97625 65.04328125 23.65625 64.36328125 C18.84502153 65.88884091 18.84502153 65.88884091 15.65625 69.36328125 C14.99625 69.36328125 14.33625 69.36328125 13.65625 69.36328125 C13.65625 70.02328125 13.65625 70.68328125 13.65625 71.36328125 C12.99625 71.36328125 12.33625 71.36328125 11.65625 71.36328125 C11.65625 72.02328125 11.65625 72.68328125 11.65625 73.36328125 C10.99625 73.36328125 10.33625 73.36328125 9.65625 73.36328125 C9.65625 74.02328125 9.65625 74.68328125 9.65625 75.36328125 C8.99625 75.36328125 8.33625 75.36328125 7.65625 75.36328125 C7.65625 76.02328125 7.65625 76.68328125 7.65625 77.36328125 C5.18125 77.85828125 5.18125 77.85828125 2.65625 78.36328125 C3.64625 76.38328125 3.64625 76.38328125 4.65625 74.36328125 C-8.68366558 84.58108893 -15.57504333 99.66445783 -23.1796875 114.23706055 C-24.34375 116.36328125 -24.34375 116.36328125 -25.34375 117.36328125 C-24.68375 117.69328125 -24.02375 118.02328125 -23.34375 118.36328125 C-24.71319102 121.31284653 -26.22205409 123.88796936 -28.34375 126.36328125 C-29.00375 126.36328125 -29.66375 126.36328125 -30.34375 126.36328125 C-30.83875 127.84828125 -30.83875 127.84828125 -31.34375 129.36328125 C-32.00375 129.36328125 -32.66375 129.36328125 -33.34375 129.36328125 C-33.611875 130.00265625 -33.88 130.64203125 -34.15625 131.30078125 C-35.34375 133.36328125 -35.34375 133.36328125 -38.34375 134.36328125 C-39.55257096 136.36344591 -39.55257096 136.36344591 -40.34375 138.36328125 C-41.00375 138.36328125 -41.66375 138.36328125 -42.34375 138.36328125 C-42.34375 139.02328125 -42.34375 139.68328125 -42.34375 140.36328125 C-43.00375 140.36328125 -43.66375 140.36328125 -44.34375 140.36328125 C-44.34375 141.02328125 -44.34375 141.68328125 -44.34375 142.36328125 C-45.00375 142.36328125 -45.66375 142.36328125 -46.34375 142.36328125 C-46.34375 143.02328125 -46.34375 143.68328125 -46.34375 144.36328125 C-50.35809472 148.15460682 -53.20408656 148.62631828 -58.71875 148.61328125 C-60.59451302 148.54938665 -62.47007538 148.47242734 -64.34375 148.36328125 C-62.79180246 145.03568202 -61.03753051 142.8774764 -58.34375 140.36328125 C-61.86093071 139.68977856 -64.84082422 139.54416518 -68.34375 140.36328125 C-70.86873471 142.58365251 -70.86873471 142.58365251 -73.15625 145.36328125 C-76.09424479 148.6901972 -77.45312862 150.19523948 -81.86328125 151.02734375 C-85.07793893 150.99251539 -88.16193324 150.81212687 -91.34375 150.36328125 C-89.56820183 147.32445791 -87.96453829 144.73447065 -85.34375 142.36328125 C-88.42103136 141.92366963 -90.3657555 141.66499288 -93.34375 142.36328125 C-95.30747108 144.14356703 -95.30747108 144.14356703 -97.09375 146.36328125 C-99.60977503 149.22148568 -100.70797045 150.25679601 -104.515625 150.89453125 C-107.49525816 150.86655347 -110.38620766 150.71818633 -113.34375 150.36328125 C-112.58807948 146.57697423 -111.21777727 144.95917685 -108.34375 142.36328125 C-111.64375 142.36328125 -114.94375 142.36328125 -118.34375 142.36328125 C-118.34375 143.02328125 -118.34375 143.68328125 -118.34375 144.36328125 C-121.78482266 146.65732969 -123.31214809 146.62621181 -127.34375 146.36328125 C-128.34375 145.36328125 -128.34375 145.36328125 -128.44140625 143.515625 C-128.40885417 141.46484375 -128.37630208 139.4140625 -128.34375 137.36328125 C-129.33375 137.03328125 -130.32375 136.70328125 -131.34375 136.36328125 C-131.78703553 131.13251202 -131.78703553 131.13251202 -131.34375 128.36328125 C-130.10625 127.18765625 -130.10625 127.18765625 -128.84375 125.98828125 C-125.91571685 122.91384644 -126.00261983 122.13344404 -126.03125 118.05078125 C-126.11115874 116.48685301 -126.2074372 114.92330553 -126.34375 113.36328125 C-127.33375 113.85828125 -127.33375 113.85828125 -128.34375 114.36328125 C-128.42562055 112.8016764 -128.48333275 111.23879642 -128.53125 109.67578125 C-128.58345703 108.37060547 -128.58345703 108.37060547 -128.63671875 107.0390625 C-127.81960164 99.57605955 -120.77535035 94.73239496 -115.6171875 89.890625 C-114.9571875 89.25253906 -114.2971875 88.61445313 -113.6171875 87.95703125 C-113.01310059 87.38662109 -112.40901367 86.81621094 -111.78662109 86.22851562 C-110.03351668 83.96223513 -109.76287741 82.16790419 -109.34375 79.36328125 C-105.50915167 71.60626935 -98.89155287 64.90220815 -92.34375 59.36328125 C-91.01056016 59.02937447 -89.67724762 58.69595676 -88.34375 58.36328125 C-86.64667932 56.40401176 -86.64667932 56.40401176 -85.15625 53.92578125 C-81.36398547 48.2414447 -77.02231294 43.32897621 -72.34375 38.36328125 C-71.81523437 37.7703125 -71.28671875 37.17734375 -70.7421875 36.56640625 C-58.90121344 23.81458803 -42.32950516 14.79094341 -26.96875 6.98828125 C-26.33912354 6.66641846 -25.70949707 6.34455566 -25.06079102 6.01293945 C-16.70944211 1.88043713 -9.34746206 -0.09497638 0 0 Z M-98.90625 73.48828125 C-100.92104131 76.11626991 -100.55846493 78.14255731 -100.34375 81.36328125 C-98.35277154 78.37681356 -97.40250074 75.76640863 -96.34375 72.36328125 C-97.52938848 72.26589713 -97.52938848 72.26589713 -98.90625 73.48828125 Z M-101.34375 81.36328125 C-100.34375 85.36328125 -100.34375 85.36328125 -100.34375 85.36328125 Z " fill="#000000" transform="translate(214.34375,277.63671875)"/>
<path d="M0 0 C0.98791672 6.02751167 1.33183914 10.95436472 -2.09179688 16.21289062 C-4.91655386 19.46524252 -8.07028192 22.3518736 -11.25 25.25 C-12.32702484 26.28745934 -13.40127257 27.3278098 -14.47265625 28.37109375 C-22.96152745 36.49430062 -22.96152745 36.49430062 -27 37 C-27.19246583 35.33807279 -27.32636193 33.66933923 -27.4375 32 C-27.51871094 31.071875 -27.59992188 30.14375 -27.68359375 29.1875 C-26.62382176 24.24593462 -23.47253804 21.53828317 -20 18 C-19.26370361 17.23300781 -18.52740723 16.46601562 -17.76879883 15.67578125 C-15.43000932 13.26141987 -13.0633884 10.87782474 -10.6875 8.5 C-9.87732422 7.67757812 -9.06714844 6.85515625 -8.23242188 6.0078125 C-7.45833984 5.23179687 -6.68425781 4.45578125 -5.88671875 3.65625 C-4.83810669 2.60147461 -4.83810669 2.60147461 -3.76831055 1.52539062 C-2 0 -2 0 0 0 Z " fill="#C301F1" transform="translate(531,604)"/>
<path d="M0 0 C0.19246583 1.66192721 0.32636193 3.33066077 0.4375 5 C0.51871094 5.928125 0.59992187 6.85625 0.68359375 7.8125 C-0.37368973 12.74246184 -3.53030349 15.47705056 -7 19 C-7.65846924 19.67853027 -8.31693848 20.35706055 -8.99536133 21.05615234 C-11.02075255 23.11864584 -13.06839179 25.15616203 -15.125 27.1875 C-15.81464844 27.87263672 -16.50429688 28.55777344 -17.21484375 29.26367188 C-18.54228731 30.58223197 -19.87068487 31.89983257 -21.20019531 33.21630859 C-23.47432599 35.47007945 -25.73823124 37.73383091 -28 40 C-28.94099471 34.6473947 -29.75251272 29.04732662 -26.94787598 24.17053223 C-23.50064579 19.67840412 -19.29667344 15.92759486 -15.125 12.125 C-13.88624114 10.93940954 -12.65053039 9.75062565 -11.41796875 8.55859375 C-2.4609963 0 -2.4609963 0 0 0 Z " fill="#378BFA" transform="translate(675,318)"/>
<path d="M0 0 C-0.08772455 1.89666526 -0.19591301 3.79238993 -0.3125 5.6875 C-0.37050781 6.74324219 -0.42851563 7.79898438 -0.48828125 8.88671875 C-1.41288346 14.51197039 -4.65338806 17.89567938 -8.6328125 21.79296875 C-9.52097656 22.67017578 -10.40914062 23.54738281 -11.32421875 24.45117188 C-12.71060547 25.8056543 -12.71060547 25.8056543 -14.125 27.1875 C-15.96310498 28.99128352 -17.79915339 30.79716591 -19.6328125 32.60546875 C-20.44637207 33.40106201 -21.25993164 34.19665527 -22.09814453 35.01635742 C-24.05308993 36.85935235 -24.05308993 36.85935235 -25 39 C-25.99 39 -26.98 39 -28 39 C-28.99006496 34.70971852 -29.09983555 31.28283421 -28 27 C-24.57680984 22.16792044 -19.98449698 18.27396615 -15.51220703 14.43530273 C-13.75689369 12.87543463 -13.75689369 12.87543463 -12 10 C-11.34 10 -10.68 10 -10 10 C-10 9.34 -10 8.68 -10 8 C-9.34 8 -8.68 8 -8 8 C-7.7525 7.4225 -7.505 6.845 -7.25 6.25 C-5.58207452 3.24773413 -3.67725381 0 0 0 Z " fill="#BD0FFD" transform="translate(116,568)"/>
<path d="M0 0 C0.71325861 5.12489516 1.23494668 9.91235204 -1.4765625 14.49609375 C-3.37512134 16.60441846 -5.34153785 18.57952426 -7.42382812 20.50585938 C-9.27294993 22.25874436 -11.03249878 24.08376365 -12.796875 25.921875 C-14.13441708 27.30305205 -15.47296014 28.68326043 -16.8125 30.0625 C-17.45840088 30.73063721 -18.10430176 31.39877441 -18.76977539 32.0871582 C-19.69777954 33.02047974 -19.69777954 33.02047974 -20.64453125 33.97265625 C-21.19471924 34.53218994 -21.74490723 35.09172363 -22.31176758 35.66821289 C-24 37 -24 37 -28 38 C-28 34.04 -28 30.08 -28 26 C-27.34 26 -26.68 26 -26 26 C-26 25.34 -26 24.68 -26 24 C-24.56420898 22.58764648 -24.56420898 22.58764648 -22.55859375 20.93359375 C-17.79903687 16.88739342 -13.43901425 12.51532662 -9.0625 8.0625 C-7.55565907 6.53031272 -6.04666913 5.00023481 -4.53515625 3.47265625 C-3.879104 2.80500244 -3.22305176 2.13734863 -2.54711914 1.44946289 C-1 0 -1 0 0 0 Z " fill="#4E76FB" transform="translate(387,361)"/>
<path d="M0 0 C0.19205227 1.82906927 0.32617346 3.66424814 0.4375 5.5 C0.51871094 6.5209375 0.59992187 7.541875 0.68359375 8.59375 C-0.34201084 13.70419116 -3.39579645 16.37921465 -7 20 C-7.67973877 20.69383789 -8.35947754 21.38767578 -9.05981445 22.10253906 C-11.14831862 24.2108175 -13.25718741 26.29618949 -15.375 28.375 C-16.80175991 29.77632747 -18.22635507 31.1798635 -19.6484375 32.5859375 C-20.26895996 33.1948584 -20.88948242 33.8037793 -21.52880859 34.43115234 C-23.09461962 35.95123461 -23.09461962 35.95123461 -24 38 C-25.32 38 -26.64 38 -28 38 C-27.80955025 27.30018676 -27.80955025 27.30018676 -24.9375 22.6875 C-22.15471251 20.14154549 -19.34076452 17.65077816 -16.46484375 15.2109375 C-12.58188872 11.72796991 -8.95317958 7.99335653 -5.3046875 4.26733398 C-1.10162247 0 -1.10162247 0 0 0 Z " fill="#AE1BF9" transform="translate(834,545)"/>
<path d="M0 0 C0.86743511 4.92098747 1.63583389 10.18668622 -0.984375 14.69293213 C-4.20349424 18.83838646 -8.11765512 22.30416737 -12 25.8125 C-13.15920297 26.90638435 -14.31548632 28.00337137 -15.46875 29.10351562 C-18.28008344 31.77267148 -21.12768353 34.3966449 -24 37 C-25.32 36.34 -26.64 35.68 -28 35 C-28.69837419 28.18260404 -28.69837419 28.18260404 -26.95877075 25.23681641 C-25.42899794 23.4895181 -23.82523914 21.89866176 -22.12890625 20.3125 C-21.23352394 19.43053955 -21.23352394 19.43053955 -20.3200531 18.53076172 C-18.41887723 16.66756932 -16.49145468 14.83437212 -14.5625 13 C-13.26841504 11.73748599 -11.97607594 10.47317983 -10.68554688 9.20703125 C-1.24422571 0 -1.24422571 0 0 0 Z " fill="#CB00FA" transform="translate(671,611)"/>
<path d="M0 0 C1.11079042 5.82234414 1.20881889 10.22095318 -2.20166016 15.24023438 C-5.1920675 18.63259388 -8.49288977 21.6857444 -11.8125 24.75 C-12.94593525 25.84891191 -14.07682256 26.95045824 -15.20507812 28.0546875 C-16.28676315 29.09614346 -17.37067227 30.13529544 -18.45703125 31.171875 C-19.22126152 31.90286407 -19.22126152 31.90286407 -20.00093079 32.64862061 C-23.64442706 36 -23.64442706 36 -27 36 C-27.7939908 31.7874377 -27.93523437 28.20120991 -27 24 C-24.03578298 20.26728227 -20.48804507 17.45303311 -16.78466797 14.50195312 C-12.98791469 11.30665543 -9.62861663 7.63423799 -6.19067383 4.06274414 C-2.20946872 0 -2.20946872 0 0 0 Z " fill="#6A59F8" transform="translate(672,418)"/>
<path d="M0 0 C0.87724588 5.85822816 1.36881876 10.89046511 -1.95263672 16.00927734 C-4.65466035 18.89558739 -7.47934514 21.57138328 -10.4375 24.1875 C-11.44376168 25.11981239 -12.44704936 26.05534545 -13.44726562 26.99414062 C-15.26904439 28.69654003 -17.10485901 30.38413068 -18.95874023 32.05151367 C-21.05924304 33.83665604 -21.05924304 33.83665604 -22 36 C-22.99 36 -23.98 36 -25 36 C-26.00366211 29.94922872 -26.3392756 25.0360068 -22.87597656 19.77099609 C-20.01700665 16.50581651 -16.83464049 13.60084417 -13.625 10.6875 C-12.53099952 9.64164981 -11.43982294 8.59283732 -10.3515625 7.54101562 C-2.44502004 0 -2.44502004 0 0 0 Z " fill="#3688F5" transform="translate(526,319)"/>
<path d="M0 0 C1.04174923 8.99542193 1.04174923 8.99542193 -1.03125 12.984375 C-2.90119237 15.14053303 -4.91762653 17.04537951 -7 19 C-8.24944487 20.2714858 -9.49376721 21.54801527 -10.734375 22.828125 C-16.20058391 28.42942407 -16.20058391 28.42942407 -18.76953125 31 C-19.34292236 31.5775 -19.91631348 32.155 -20.50708008 32.75 C-22 34 -22 34 -24 34 C-24.66 35.32 -25.32 36.64 -26 38 C-26.33 38 -26.66 38 -27 38 C-27.90850119 33.03893094 -28.63761676 27.80834568 -25.9888916 23.26605225 C-22.66212067 18.96167347 -18.62643351 15.34934245 -14.625 11.6875 C-13.43464563 10.54528496 -12.24711428 9.40012025 -11.0625 8.25195312 C-2.4441914 0 -2.4441914 0 0 0 Z " fill="#2893F2" transform="translate(676,293)"/>
<path d="M0 0 C1.00398747 4.27889897 1.044292 7.71655451 0 12 C-3.21186237 17.02501048 -7.75687953 21.07580044 -12.06201172 25.15283203 C-13.937012 26.93996382 -15.75788374 28.76693989 -17.56640625 30.62109375 C-20.33945828 33.45772546 -23.1099011 36.28199105 -26 39 C-26.33 39 -26.66 39 -27 39 C-27.96525953 33.99546871 -28.66540309 28.79064174 -25.94073486 24.22503662 C-22.44206422 19.76786473 -18.23218171 16.0016484 -14.0625 12.1875 C-12.81545514 10.99717583 -11.57128181 9.80383565 -10.33007812 8.60742188 C-1.32854898 0 -1.32854898 0 0 0 Z " fill="#1CA4FA" transform="translate(676,267)"/>
<path d="M0 0 C0.78748863 5.7385535 1.31119291 10.83843981 -1.77832031 15.93164062 C-4.26325372 18.72070629 -6.85813806 21.24096803 -9.625 23.75 C-10.52863281 24.636875 -11.43226562 25.52375 -12.36328125 26.4375 C-19.87227348 33.58474516 -19.87227348 33.58474516 -26 34 C-27 33 -27 33 -27.55859375 29.43359375 C-27.50141389 25.48466482 -26.36088381 23.80391995 -23.59765625 21.03515625 C-22.10519229 19.68927357 -20.59231542 18.36577037 -19.0625 17.0625 C-17.50035729 15.66902718 -15.93915189 14.27450285 -14.37890625 12.87890625 C-13.62367676 12.2152002 -12.86844727 11.55149414 -12.09033203 10.86767578 C-8.7261599 7.86184574 -5.60939787 4.64353319 -2.46875 1.40625 C-1 0 -1 0 0 0 Z " fill="#586DFB" transform="translate(110,381)"/>
<path d="M0 0 C0.19246583 1.66192721 0.32636193 3.33066077 0.4375 5 C0.51871094 5.928125 0.59992188 6.85625 0.68359375 7.8125 C-0.37725976 12.75910837 -3.5227937 15.45791311 -7 19 C-7.76723389 19.79792969 -8.53446777 20.59585937 -9.32495117 21.41796875 C-11.798994 23.96786609 -14.30122635 26.48679608 -16.8125 29 C-17.67037109 29.87011719 -18.52824219 30.74023438 -19.41210938 31.63671875 C-20.23130859 32.45785156 -21.05050781 33.27898437 -21.89453125 34.125 C-22.63550049 34.87007813 -23.37646973 35.61515625 -24.13989258 36.3828125 C-26 38 -26 38 -28 38 C-28 34.04 -28 30.08 -28 26 C-27.01 25.67 -26.02 25.34 -25 25 C-25 24.34 -25 23.68 -25 23 C-23.54663086 21.57006836 -23.54663086 21.57006836 -21.52734375 19.90234375 C-16.95752251 16.01744172 -12.76204425 11.84032094 -8.5625 7.5625 C-7.14941047 6.12406358 -5.73417027 4.68773558 -4.31640625 3.25390625 C-3.70224854 2.62814697 -3.08809082 2.0023877 -2.45532227 1.35766602 C-1 0 -1 0 0 0 Z " fill="#348BF5" transform="translate(387,313)"/>
<path d="M0 0 C1.05548933 4.74561094 1.58428449 9.46366836 -1.10028076 13.76147461 C-4.78088446 18.33996079 -9.13352095 22.27090022 -13.4375 26.25 C-14.73249465 27.49331152 -16.02484312 28.73938545 -17.31445312 29.98828125 C-26.68884681 39 -26.68884681 39 -28 39 C-29.05548933 34.25438906 -29.58428449 29.53633164 -26.89971924 25.23852539 C-23.21911554 20.66003921 -18.86647905 16.72909978 -14.5625 12.75 C-13.26750535 11.50668848 -11.97515688 10.26061455 -10.68554688 9.01171875 C-1.31115319 0 -1.31115319 0 0 0 Z " fill="#5F68FE" transform="translate(673,392)"/>
<path d="M0 0 C0.77579934 3.87518677 0.85412671 7.1277619 0 11 C-3.21638132 15.57684281 -7.18827835 19.1878194 -11.3125 22.9375 C-12.92754107 24.45749609 -14.5348671 25.98533342 -16.14164734 27.51405334 C-17.5985396 28.89179834 -19.07287707 30.25102691 -20.5480957 31.60913086 C-23.00438091 33.87540549 -23.00438091 33.87540549 -24.70776367 36.31469727 C-25.13420166 36.87084717 -25.56063965 37.42699707 -26 38 C-26.66 38 -27.32 38 -28 38 C-28.13592021 36.10617836 -28.2324094 34.20950296 -28.3125 32.3125 C-28.37050781 31.25675781 -28.42851562 30.20101563 -28.48828125 29.11328125 C-27.83700203 24.96072494 -26.02984698 23.85599894 -23 21 C-21.32846894 19.306935 -19.65792833 17.6128917 -17.98828125 15.91796875 C-16.579322 14.49522513 -15.17034802 13.07249573 -13.76049805 11.65063477 C-12.78803116 10.66800215 -11.81735068 9.68359867 -10.84838867 8.69750977 C-9.44137874 7.2663675 -8.02743802 5.84204942 -6.61328125 4.41796875 C-5.77579346 3.57000732 -4.93830566 2.7220459 -4.07543945 1.84838867 C-2 0 -2 0 0 0 Z " fill="#4282FB" transform="translate(387,338)"/>
<path d="M0 0 C0.97506967 3.93706427 0.99103703 7.05487704 0 11 C-3.52461444 16.46806967 -8.71051079 20.78606263 -13.4375 25.1875 C-14.73226731 26.43561486 -16.02461353 27.68624648 -17.31445312 28.93945312 C-26.70575912 38 -26.70575912 38 -28 38 C-28.99381042 33.29789375 -29.56147906 28.55336882 -26.94787598 24.27954102 C-23.4398406 19.85343521 -19.26033221 16.07650047 -15.125 12.25 C-13.88669629 11.05479872 -12.6509897 9.85690047 -11.41796875 8.65625 C-2.42678703 0 -2.42678703 0 0 0 Z " fill="#C806FE" transform="translate(671,588)"/>
<path d="M0 0 C0.99381042 4.70210625 1.56147906 9.44663118 -1.05212402 13.72045898 C-4.5601594 18.14656479 -8.73966779 21.92349953 -12.875 25.75 C-14.11330371 26.94520128 -15.3490103 28.14309953 -16.58203125 29.34375 C-25.57321297 38 -25.57321297 38 -28 38 C-28.97506967 34.06293573 -28.99103703 30.94512296 -28 27 C-24.47538556 21.53193033 -19.28948921 17.21393737 -14.5625 12.8125 C-13.26773269 11.56438514 -11.97538647 10.31375352 -10.68554688 9.06054688 C-1.29424088 0 -1.29424088 0 0 0 Z " fill="#289BFD" transform="translate(387,289)"/>
<path d="M0 0 C0.02144598 1.6666589 -0.01043801 3.3340164 -0.0625 5 C-0.07410156 5.928125 -0.08570313 6.85625 -0.09765625 7.8125 C-1.46410668 12.63944176 -4.55127461 15.45670699 -8 19 C-8.73565186 19.76699219 -9.47130371 20.53398438 -10.22924805 21.32421875 C-12.56933642 23.73788861 -14.93632232 26.12188575 -17.3125 28.5 C-18.12267578 29.32242188 -18.93285156 30.14484375 -19.76757812 30.9921875 C-20.92870117 32.15621094 -20.92870117 32.15621094 -22.11328125 33.34375 C-22.81235596 34.04693359 -23.51143066 34.75011719 -24.23168945 35.47460938 C-26 37 -26 37 -28 37 C-28 33.04 -28 29.08 -28 25 C-27.34 25 -26.68 25 -26 25 C-25.7834375 24.44570313 -25.566875 23.89140625 -25.34375 23.3203125 C-23.56944804 20.2565469 -21.13327406 18.17901204 -18.5 15.875 C-13.44125679 11.36424887 -8.65948749 6.68940204 -3.9609375 1.80078125 C-2 0 -2 0 0 0 Z " fill="#952FF6" transform="translate(391,503)"/>
<path d="M0 0 C0.80381528 5.75072092 1.34852435 10.84762393 -1.82666016 15.91552734 C-4.36635538 18.679597 -7.00729258 21.19376866 -9.8125 23.6875 C-10.74126953 24.56599609 -11.67003906 25.44449219 -12.62695312 26.34960938 C-21.8500409 35 -21.8500409 35 -26 35 C-26.1363128 33.43997572 -26.23259126 31.87642824 -26.3125 30.3125 C-26.39951172 29.00732422 -26.39951172 29.00732422 -26.48828125 27.67578125 C-25.80083671 23.90858516 -23.74925897 22.6158045 -21 20 C-19.39011368 18.37941403 -17.78074989 16.75830884 -16.171875 15.13671875 C-14.36464996 13.32024621 -12.5573564 11.50384184 -10.75 9.6875 C-9.82703125 8.75615234 -8.9040625 7.82480469 -7.953125 6.86523438 C-7.0765625 5.98544922 -6.2 5.10566406 -5.296875 4.19921875 C-4.49604492 3.39315186 -3.69521484 2.58708496 -2.87011719 1.7565918 C-1 0 -1 0 0 0 Z " fill="#7D48F8" transform="translate(392,453)"/>
<path d="M0 0 C1.5 1.0625 1.5 1.0625 3 3 C3.47245395 7.13031906 3.59289339 9.20907784 1.05859375 12.58984375 C0.19363281 13.36457031 -0.67132812 14.13929688 -1.5625 14.9375 C-4.74977133 17.9006313 -7.81185906 20.80275234 -10.625 24.125 C-14.19581503 28.29095087 -17.95414614 32.28965597 -22 36 C-22.33 36 -22.66 36 -23 36 C-23.90740421 29.72149615 -24.56687574 24.26420602 -20.83203125 18.8671875 C-17.98498282 16.04762781 -15.10990419 13.52398022 -12 11 C-10.51767868 9.69106387 -9.03805291 8.37906139 -7.5625 7.0625 C-6.93472656 6.52625 -6.30695312 5.99 -5.66015625 5.4375 C-3.6745442 3.71819357 -1.81857601 1.89435001 0 0 Z " fill="#9B2AF5" transform="translate(670,515)"/>
<path d="M0 0 C0.45501443 6.07217365 0.34082937 11.05301771 -3.19042969 16.18066406 C-6.0496264 19.37629724 -9.19909312 22.25020772 -12.375 25.125 C-13.45587235 26.14553554 -14.5340244 27.16896026 -15.609375 28.1953125 C-17.57871388 30.06732374 -19.5628597 31.91562446 -21.56396484 33.75439453 C-22.99463872 35.0732298 -24.40616157 36.41446203 -25.76806641 37.80419922 C-27 39 -27 39 -28 39 C-29.05548933 34.25438906 -29.58428449 29.53633164 -26.89971924 25.23852539 C-23.21911554 20.66003921 -18.86647905 16.72909978 -14.5625 12.75 C-13.26750535 11.50668848 -11.97515688 10.26061455 -10.68554688 9.01171875 C-1.31115319 0 -1.31115319 0 0 0 Z " fill="#1EA5FD" transform="translate(527,269)"/>
<path d="M0 0 C0.93165272 5.9519265 1.3332605 10.92463863 -2.01416016 16.13525391 C-4.82025534 19.20593105 -7.7363233 22.01999981 -10.8125 24.8125 C-11.8498096 25.81024362 -12.88434402 26.81088089 -13.91601562 27.81445312 C-21.43935208 35 -21.43935208 35 -25 35 C-26.21260877 31.36217368 -26.39544552 28.82264001 -26 25 C-23.77832031 22.57739258 -23.77832031 22.57739258 -21 20 C-19.39011368 18.37941403 -17.78074989 16.75830884 -16.171875 15.13671875 C-14.36464996 13.32024621 -12.5573564 11.50384184 -10.75 9.6875 C-9.82703125 8.75615234 -8.9040625 7.82480469 -7.953125 6.86523438 C-7.0765625 5.98544922 -6.2 5.10566406 -5.296875 4.19921875 C-4.49604492 3.39315186 -3.69521484 2.58708496 -2.87011719 1.7565918 C-1 0 -1 0 0 0 Z " fill="#685DFA" transform="translate(529,412)"/>
<path d="M0 0 C0.93899223 4.66018368 1.54536027 9.43316834 -1.0111084 13.67944336 C-4.36827445 17.95082501 -8.39174047 21.57621407 -12.375 25.25 C-13.56512677 26.39702033 -14.75265604 27.54674222 -15.9375 28.69921875 C-24.57290888 37 -24.57290888 37 -27 37 C-28.06514443 32.69208251 -28.15285383 29.30430261 -27 25 C-23.46394656 20.17992716 -18.55991268 16.49501068 -13.98876953 12.70166016 C-11.03185416 10.17162085 -8.32939435 7.41958684 -5.625 4.625 C-1.10662824 0 -1.10662824 0 0 0 Z " fill="#784EF9" transform="translate(672,442)"/>
<path d="M0 0 C0.02144598 1.6666589 -0.01043801 3.3340164 -0.0625 5 C-0.07410156 5.928125 -0.08570312 6.85625 -0.09765625 7.8125 C-1.46563396 12.64483684 -4.5422672 15.45610911 -8 19 C-8.77190674 19.79792969 -9.54381348 20.59585937 -10.33911133 21.41796875 C-12.83183838 23.96524503 -15.34907682 26.48566363 -17.875 29 C-18.74125 29.87011719 -19.6075 30.74023438 -20.5 31.63671875 C-21.32242188 32.45785156 -22.14484375 33.27898437 -22.9921875 34.125 C-24.11149658 35.24261719 -24.11149658 35.24261719 -25.25341797 36.3828125 C-27 38 -27 38 -28 38 C-28.08187055 36.43839515 -28.13958275 34.87551517 -28.1875 33.3125 C-28.22230469 32.44238281 -28.25710937 31.57226562 -28.29296875 30.67578125 C-27.67342409 25.01727339 -23.62752524 21.32925417 -19.74609375 17.48046875 C-19.24457291 16.97703445 -18.74305206 16.47360016 -18.22633362 15.95491028 C-17.17230649 14.89952932 -16.11577815 13.84664101 -15.05688477 12.79614258 C-13.43201697 11.18205335 -11.81817936 9.55748009 -10.20507812 7.93164062 C-9.1777246 6.90560751 -8.14975147 5.88019433 -7.12109375 4.85546875 C-6.1870874 3.92371826 -5.25308105 2.99196777 -4.29077148 2.03198242 C-2 0 -2 0 0 0 Z " fill="#4B7BFE" transform="translate(114,354)"/>
<path d="M0 0 C0.74071909 3.86819967 0.85610008 7.14037563 0 11 C-3.16108799 15.27743618 -6.96340348 18.5835958 -11 22 C-11.73605469 22.64839844 -12.47210937 23.29679687 -13.23046875 23.96484375 C-14.50399834 25.08585482 -15.78618879 26.19712764 -17.078125 27.296875 C-20.00465142 29.89030085 -22.71257426 32.689876 -25.43359375 35.49609375 C-27 37 -27 37 -28 37 C-29.06514443 32.69208251 -29.15285383 29.30430261 -28 25 C-24.46276028 20.1783101 -19.55731675 16.4956116 -14.984375 12.70166016 C-12.04157899 10.17812568 -9.3679812 7.42152333 -6.6875 4.625 C-2.22910663 0 -2.22910663 0 0 0 Z " fill="#5172F9" transform="translate(673,369)"/>
<path d="M0 0 C0.99900158 4.70383353 1.56983069 9.45028018 -1.05926514 13.72045898 C-4.58879706 18.14435408 -8.78571414 21.92370726 -12.9375 25.75 C-14.1843176 26.94513016 -15.42848878 28.14302767 -16.66992188 29.34375 C-25.68854323 38 -25.68854323 38 -27 38 C-27.99900158 33.29616647 -28.56983069 28.54971982 -25.94073486 24.27954102 C-22.41120294 19.85564592 -18.21428586 16.07629274 -14.0625 12.25 C-12.8156824 11.05486984 -11.57151122 9.85697233 -10.33007812 8.65625 C-1.31145677 0 -1.31145677 0 0 0 Z " fill="#437DF6" transform="translate(674,343)"/>
<path d="M0 0 C0.19246583 1.66192721 0.32636193 3.33066077 0.4375 5 C0.51871094 5.928125 0.59992187 6.85625 0.68359375 7.8125 C-0.37650411 12.7555849 -3.51862154 15.46730194 -7 19 C-7.74693115 19.76699219 -8.4938623 20.53398438 -9.26342773 21.32421875 C-11.63689558 23.73479891 -14.03285432 26.120544 -16.4375 28.5 C-17.26443359 29.32242188 -18.09136719 30.14484375 -18.94335938 30.9921875 C-20.95994959 32.99712113 -22.97885236 34.99966253 -25 37 C-25.66 36.67 -26.32 36.34 -27 36 C-27.3612127 31.48484125 -27.48945052 28.01968858 -25.5 23.875 C-23.02130747 21.02450359 -20.45530018 18.69480528 -17.56640625 16.27734375 C-13.40752949 12.58689451 -9.55240393 8.59174221 -5.66064453 4.62304688 C-5.0726709 4.02685547 -4.48469727 3.43066406 -3.87890625 2.81640625 C-3.3485376 2.27443604 -2.81816895 1.73246582 -2.27172852 1.17407227 C-1 0 -1 0 0 0 Z " fill="#C703F9" transform="translate(831,596)"/>
<path d="M0 0 C1.10337373 5.81423178 1.20178569 10.2182641 -2.18554688 15.24023438 C-4.64171476 18.04584221 -7.30005504 20.62630171 -10.03417969 23.15917969 C-11.76107156 24.76026498 -13.44037581 26.4013688 -15.1171875 28.0546875 C-16.19545217 29.09630725 -17.2761019 30.13546494 -18.359375 31.171875 C-19.11586334 31.90286407 -19.11586334 31.90286407 -19.88763428 32.64862061 C-22.9265161 35.44430011 -23.67807188 36 -28 36 C-28.01636233 28.34146551 -25.58378517 23.75181539 -20.37109375 18.45703125 C-18.09668194 16.201694 -15.77234067 14.00494508 -13.4375 11.8125 C-12.24864215 10.66027227 -11.06177262 9.50598928 -9.87695312 8.34960938 C-1.26214562 0 -1.26214562 0 0 0 Z " fill="#A328FD" transform="translate(835,520)"/>
<path d="M0 0 C1.11079042 5.82234414 1.20881889 10.22095318 -2.20166016 15.24023438 C-5.1920675 18.63259388 -8.49288977 21.6857444 -11.8125 24.75 C-12.94593525 25.84891191 -14.07682256 26.95045824 -15.20507812 28.0546875 C-16.28676315 29.09614346 -17.37067227 30.13529544 -18.45703125 31.171875 C-19.22126152 31.90286407 -19.22126152 31.90286407 -20.00093079 32.64862061 C-23.64442706 36 -23.64442706 36 -27 36 C-27.95797991 32.40153332 -27.94650581 29.61101975 -27 26 C-23.56602223 20.77592157 -18.59814288 16.61735717 -14.0625 12.375 C-12.81613713 11.17026354 -11.57197044 9.96325062 -10.33007812 8.75390625 C-1.27765433 0 -1.27765433 0 0 0 Z " fill="#2B98FD" transform="translate(526,295)"/>
<path d="M0 0 C0.80825278 4.21425833 0.8981586 7.78965971 0 12 C-3.3567096 16.90425471 -7.51665508 20.74450275 -11.875 24.75 C-13.01694983 25.84883904 -14.15630177 26.95038463 -15.29296875 28.0546875 C-23.57257821 36 -23.57257821 36 -26 36 C-27.06547335 31.69075224 -27.1565005 28.3050141 -26 24 C-22.44229121 19.16628616 -17.5350041 15.45905108 -12.94140625 11.65429688 C-10.16790705 9.29096305 -7.66440154 6.73822135 -5.125 4.125 C-1.10610932 0 -1.10610932 0 0 0 Z " fill="#9337FD" transform="translate(671,491)"/>
<path d="M0 0 C0.19246583 1.66192721 0.32636193 3.33066077 0.4375 5 C0.51871094 5.928125 0.59992187 6.85625 0.68359375 7.8125 C-0.37511821 12.74912263 -3.53202028 15.46538273 -7 19 C-7.70535889 19.73605469 -8.41071777 20.47210937 -9.13745117 21.23046875 C-11.34100586 23.50928112 -13.57199337 25.75755017 -15.8125 28 C-16.57498047 28.77472656 -17.33746094 29.54945313 -18.12304688 30.34765625 C-18.85201172 31.07855469 -19.58097656 31.80945313 -20.33203125 32.5625 C-20.98921143 33.22378906 -21.6463916 33.88507812 -22.32348633 34.56640625 C-24 36 -24 36 -26 36 C-27.06547335 31.69075224 -27.1565005 28.3050141 -26 24 C-22.44229121 19.16628616 -17.5350041 15.45905108 -12.94140625 11.65429688 C-10.16790705 9.29096305 -7.66440154 6.73822135 -5.125 4.125 C-1.10610932 0 -1.10610932 0 0 0 Z " fill="#BA0EF8" transform="translate(832,572)"/>
<path d="M0 0 C0.66 0 1.32 0 2 0 C2.97506967 3.93706427 2.99103703 7.05487704 2 11 C-1.52461444 16.46806967 -6.71051079 20.78606263 -11.4375 25.1875 C-12.73226731 26.43561486 -14.02461353 27.68624648 -15.31445312 28.93945312 C-24.70575912 38 -24.70575912 38 -26 38 C-26.62166405 28.13971743 -26.62166405 28.13971743 -24.5 24.25 C-21.86296092 21.87666482 -19.19762151 19.54249962 -16.5 17.23828125 C-13.24686642 14.32571009 -10.15267124 11.27132418 -7.0625 8.1875 C-6.48250244 7.61193359 -5.90250488 7.03636719 -5.30493164 6.44335938 C-2.28313566 3.50225529 -2.28313566 3.50225529 0 0 Z " fill="#BA13FE" transform="translate(669,563)"/>
<path d="M0 0 C0.94404896 4.66173589 1.5539478 9.43700607 -1.01824951 13.67944336 C-4.39687207 17.94866913 -8.43781959 21.57648304 -12.4375 25.25 C-13.63614054 26.39694846 -14.83213442 27.5466696 -16.02539062 28.69921875 C-24.68821423 37 -24.68821423 37 -26 37 C-26.94404896 32.33826411 -27.5539478 27.56299393 -24.98175049 23.32055664 C-21.60312793 19.05133087 -17.56218041 15.42351696 -13.5625 11.75 C-12.36385946 10.60305154 -11.16786558 9.4533304 -9.97460938 8.30078125 C-1.31178577 0 -1.31178577 0 0 0 Z " fill="#5C69FA" transform="translate(529,389)"/>
<path d="M0 0 C0.87980591 3.90877479 0.92665624 7.08893988 0 11 C-3.5785814 15.99890361 -7.93989429 20.02453216 -12.4375 24.1875 C-13.63591323 25.33925336 -14.83190492 26.49353197 -16.02539062 27.65039062 C-24.70523518 36 -24.70523518 36 -26 36 C-26.80825278 31.78574167 -26.8981586 28.21034029 -26 24 C-22.6432904 19.09574529 -18.48334492 15.25549725 -14.125 11.25 C-12.98305017 10.15116096 -11.84369823 9.04961537 -10.70703125 7.9453125 C-2.42742179 0 -2.42742179 0 0 0 Z " fill="#7355FC" transform="translate(391,431)"/>
<path d="M0 0 C0.80825278 4.21425833 0.8981586 7.78965971 0 12 C-3.3567096 16.90425471 -7.51665508 20.74450275 -11.875 24.75 C-13.01694983 25.84883904 -14.15630177 26.95038463 -15.29296875 28.0546875 C-23.57257821 36 -23.57257821 36 -26 36 C-26.87980591 32.09122521 -26.92665624 28.91106012 -26 25 C-22.4214186 20.00109639 -18.06010571 15.97546784 -13.5625 11.8125 C-12.36408677 10.66074664 -11.16809508 9.50646803 -9.97460938 8.34960938 C-1.29476482 0 -1.29476482 0 0 0 Z " fill="#5969F7" transform="translate(387,386)"/>
<path d="M0 0 C1.06106636 5.75897612 1.23955271 10.19119618 -2.15625 15.14648438 C-5.06714511 18.39599382 -8.27200999 21.32154335 -11.5 24.25 C-12.61079892 25.30051044 -13.71890282 26.35387829 -14.82421875 27.41015625 C-17.51916832 29.97382819 -20.24864443 32.49680092 -23 35 C-25.78913588 32.601083 -25.98615646 32.0969048 -26.546875 28.171875 C-26.39979717 24.59298126 -25.99239546 23.99062925 -23.578125 21.015625 C-22.48726817 20.07191011 -21.37652386 19.15083872 -20.25 18.25 C-19.06014256 17.23191542 -17.87270418 16.21099792 -16.6875 15.1875 C-16.07777344 14.66929687 -15.46804687 14.15109375 -14.83984375 13.6171875 C-11.27573943 10.4844079 -8.0078364 7.0520309 -4.69628906 3.65722656 C-1.09801041 0 -1.09801041 0 0 0 Z " fill="#C503F7" transform="translate(114,595)"/>
<path d="M0 0 C0.9269146 3.92309266 0.95898597 7.07192394 0 11 C-3.36595699 16.29379407 -8.37517177 20.45151687 -12.9375 24.6875 C-14.18409027 25.88743426 -15.42825923 27.08988934 -16.66992188 28.29492188 C-25.70550764 37 -25.70550764 37 -27 37 C-27 32.71 -27 28.42 -27 24 C-26.34 24 -25.68 24 -25 24 C-25 23.34 -25 22.68 -25 22 C-23.48483244 20.67308973 -21.90914348 19.41516168 -20.3125 18.1875 C-14.8710163 13.85695641 -9.99832679 9.15030516 -5.15356445 4.16674805 C-1.08982164 0 -1.08982164 0 0 0 Z " fill="#AD1FFD" transform="translate(672,539)"/>
<path d="M0 0 C0.84299403 3.89494463 0.89136249 7.10320588 0 11 C-2.96964478 15.24758716 -6.46824928 18.72334367 -10.21533203 22.28564453 C-12.05976235 24.05740783 -13.84366108 25.8760045 -15.62109375 27.71484375 C-21.91855859 34.1899094 -21.91855859 34.1899094 -25 37 C-25.66 37 -26.32 37 -27 37 C-26.93902321 35.45728733 -26.8499849 33.91567634 -26.75 32.375 C-26.70359375 31.51648438 -26.6571875 30.65796875 -26.609375 29.7734375 C-25.34044712 23.99818884 -21.13513494 19.88497977 -17.05078125 15.8203125 C-16.12072266 14.8921875 -15.19066406 13.9640625 -14.23242188 13.0078125 C-13.75345459 12.53504883 -13.2744873 12.06228516 -12.78100586 11.57519531 C-11.30058231 10.11323091 -9.8285199 8.64321727 -8.35742188 7.171875 C-1.14034598 0 -1.14034598 0 0 0 Z " fill="#5072F8" transform="translate(269,367)"/>
<path d="M0 0 C1.25106486 3.84122362 1.64505637 6.99414571 1 11 C-2.35696138 15.89062159 -6.57140622 19.70681019 -10.9375 23.6875 C-12.10102171 24.79076415 -13.26186229 25.89686318 -14.41992188 27.00585938 C-17.25000499 29.70433832 -20.11389543 32.36157522 -23 35 C-25 34 -25 34 -26.3984375 30.25390625 C-26.74587331 26.39155263 -26.07250571 25.09920428 -23.74707031 21.91748047 C-20.5545546 18.40295404 -17.09403901 15.17486738 -13.625 11.9375 C-12.42226474 10.77637796 -11.22171636 9.61298612 -10.0234375 8.44726562 C-1.27730113 0 -1.27730113 0 0 0 Z " fill="#A624FB" transform="translate(389,529)"/>
<path d="M0 0 C0.8289825 3.89233946 0.88838952 7.10758977 0 11 C-3.39416553 15.8326879 -7.55793254 19.68766698 -11.875 23.6875 C-13.01672216 24.79114315 -14.15607199 25.89724607 -15.29296875 27.00585938 C-23.58960442 35 -23.58960442 35 -26 35 C-26.79408473 30.78693937 -26.93428471 27.20183543 -26 23 C-23.04789832 19.23567987 -19.52490277 16.39153826 -15.7890625 13.45458984 C-12.64981036 10.90223391 -9.75049324 8.09122677 -6.8125 5.3125 C-1.15504296 0 -1.15504296 0 0 0 Z " fill="#8542FA" transform="translate(671,467)"/>
<path d="M0 0 C1.04658479 5.74279859 1.22489592 10.18546453 -2.12402344 15.14648438 C-4.99821938 18.4007938 -8.17588212 21.32124337 -11.375 24.25 C-12.4687729 25.30065737 -13.55994748 26.35402674 -14.6484375 27.41015625 C-22.5722173 35 -22.5722173 35 -25 35 C-26.33287769 31.48116309 -26.66992347 28.71849174 -26 25 C-22.46527444 20.01079407 -18.09640258 16.01607413 -13.625 11.875 C-12.42203831 10.71867979 -11.2214875 9.55984589 -10.0234375 8.3984375 C-1.29412226 0 -1.29412226 0 0 0 Z " fill="#C30AFD" transform="translate(529,582)"/>
<path d="M0 0 C0.81286073 4.21609439 0.90384442 7.78797845 0 12 C-3.37973512 16.90227809 -7.56171232 20.74597915 -11.9375 24.75 C-13.08796347 25.84876635 -14.23578004 26.9503112 -15.38085938 28.0546875 C-23.68785646 36 -23.68785646 36 -25 36 C-25.81286073 31.78390561 -25.90384442 28.21202155 -25 24 C-21.62026488 19.09772191 -17.43828768 15.25402085 -13.0625 11.25 C-11.91203653 10.15123365 -10.76421996 9.0496888 -9.61914062 7.9453125 C-1.31214354 0 -1.31214354 0 0 0 Z " fill="#9435FB" transform="translate(835,495)"/>
<path d="M0 0 C0.81286073 4.21609439 0.90384442 7.78797845 0 12 C-3.37973512 16.90227809 -7.56171232 20.74597915 -11.9375 24.75 C-13.08796347 25.84876635 -14.23578004 26.9503112 -15.38085938 28.0546875 C-23.68785646 36 -23.68785646 36 -25 36 C-25.81286073 31.78390561 -25.90384442 28.21202155 -25 24 C-21.62026488 19.09772191 -17.43828768 15.25402085 -13.0625 11.25 C-11.91203653 10.15123365 -10.76421996 9.0496888 -9.61914062 7.9453125 C-1.31214354 0 -1.31214354 0 0 0 Z " fill="#4E73F7" transform="translate(528,365)"/>
<path d="M0 0 C1.04658479 5.74279859 1.22489592 10.18546453 -2.12402344 15.14648438 C-4.99821938 18.4007938 -8.17588212 21.32124337 -11.375 24.25 C-12.4687729 25.30065737 -13.55994748 26.35402674 -14.6484375 27.41015625 C-22.5722173 35 -22.5722173 35 -25 35 C-25.30556226 33.61135566 -25.56800808 32.21318736 -25.8125 30.8125 C-25.96332031 30.03519531 -26.11414063 29.25789062 -26.26953125 28.45703125 C-25.93926374 25.44633177 -24.78744302 24.42692524 -22.58862305 22.4440918 C-20.75600159 20.7782003 -19.09058007 19.00308233 -17.40625 17.1875 C-16.76816406 16.50429688 -16.13007813 15.82109375 -15.47265625 15.1171875 C-14.82167969 14.41851563 -14.17070313 13.71984375 -13.5 13 C-1.38745387 0 -1.38745387 0 0 0 Z " fill="#B415F9" transform="translate(527,559)"/>
<path d="M0 0 C1.29621348 3.85137067 1.67491041 6.97511241 1 11 C-2.49465041 16.0610868 -6.86368928 20.04146538 -11.375 24.1875 C-12.57818806 25.33901641 -13.77874122 26.49329265 -14.9765625 27.65039062 C-23.68892558 36 -23.68892558 36 -25 36 C-25.55720206 31.87257731 -25.73948379 28.11274545 -25 24 C-23.0520851 21.45472454 -20.98955334 19.78936534 -18.4375 17.859375 C-16.08484488 16.06472141 -14.33106588 14.26175925 -12.4375 12 C-2.27083333 0 -2.27083333 0 0 0 Z " fill="#655EF8" transform="translate(388,408)"/>
<path d="M0 0 C2.33643066 2.33643066 3.19192966 4.27191605 3.53076172 7.56640625 C2.26117202 13.38759765 -3.69460521 17.56333321 -7.9375 21.5 C-9.00398859 22.52131624 -10.06846754 23.54473541 -11.13085938 24.5703125 C-13.73108492 27.07164214 -16.3576816 29.54309078 -19 32 C-19.99 31.67 -20.98 31.34 -22 31 C-23.64628913 27.70742173 -23.53827018 25.6482757 -23 22 C-21.43808082 20.15189066 -19.68302355 18.80074448 -17.77734375 17.30859375 C-13.94694542 14.12467615 -10.50015652 10.6018266 -7 7.0625 C-6.31671631 6.37478516 -5.63343262 5.68707031 -4.92944336 4.97851562 C-3.28402753 3.32123232 -1.64091045 1.66174232 0 0 Z " fill="#7E4AFD" transform="translate(828,454)"/>
<path d="M0 0 C0.13609913 1.72694675 0.23249228 3.45704722 0.3125 5.1875 C0.37050781 6.15042969 0.42851562 7.11335938 0.48828125 8.10546875 C-0.04852388 11.28764954 -0.92279341 12.36771954 -3.29077148 14.4753418 C-5.48867016 16.43590132 -7.51721065 18.53675851 -9.57421875 20.64453125 C-11.27851876 22.36731322 -12.98294928 24.08996608 -14.6875 25.8125 C-15.55439453 26.69615234 -16.42128906 27.57980469 -17.31445312 28.49023438 C-18.14267578 29.32490234 -18.97089844 30.15957031 -19.82421875 31.01953125 C-20.95476685 32.16578979 -20.95476685 32.16578979 -22.1081543 33.33520508 C-24 35 -24 35 -26 35 C-26.90270812 26.69174189 -26.90270812 26.69174189 -24.9453125 23.0234375 C-21.79580595 19.29510272 -18.0131462 16.19027595 -14.296875 13.04296875 C-10.91071049 10.03112515 -7.75610232 6.79915285 -4.59301758 3.55566406 C-1.10142514 0 -1.10142514 0 0 0 Z " fill="#8C3DFD" transform="translate(392,478)"/>
<path d="M0 0 C1.05381474 5.75087242 1.23224612 10.18831987 -2.14013672 15.14648438 C-5.03269472 18.39839083 -8.22395144 21.32139895 -11.4375 24.25 C-12.53978639 25.3005838 -13.63942563 26.35395242 -14.73632812 27.41015625 C-22.687466 35 -22.687466 35 -24 35 C-25.05381474 29.24912758 -25.23224612 24.81168013 -21.85986328 19.85351562 C-18.96730528 16.60160917 -15.77604856 13.67860105 -12.5625 10.75 C-11.46021361 9.6994162 -10.36057437 8.64604758 -9.26367188 7.58984375 C-1.312534 0 -1.312534 0 0 0 Z " fill="#427EF7" transform="translate(527,343)"/>
<path d="M0 0 C2.8605891 1.35937085 4.85927699 2.64520469 7 5 C4.63677895 10.43909855 0.24452695 14.1639623 -3.875 18.3125 C-4.69097656 19.16134766 -5.50695312 20.01019531 -6.34765625 20.88476562 C-7.13785156 21.68205078 -7.92804687 22.47933594 -8.7421875 23.30078125 C-9.4626123 24.03466064 -10.18303711 24.76854004 -10.92529297 25.5246582 C-13 27 -13 27 -15.15673828 26.89135742 C-17.84841543 25.58972653 -18.66722735 23.59890666 -20 21 C-13.80281523 13.54084305 -6.89583408 6.802507 0 0 Z " fill="#7250F5" transform="translate(817,440)"/>
<path d="M0 0 C1.10878792 3.5822379 1.58768075 5.37024524 1 9 C-1.60266697 12.83334432 -4.74456813 15.97512838 -8.10424805 19.13330078 C-9.69267664 20.6298773 -11.23679229 22.16330031 -12.77929688 23.70703125 C-18.28769952 29.0790199 -18.28769952 29.0790199 -21 31 C-23.32739258 30.77490234 -23.32739258 30.77490234 -25 30 C-25.8125 27.3125 -25.8125 27.3125 -26 24 C-24.1171875 21.90625 -24.1171875 21.90625 -22.72680664 20.61254883 C-20.56014434 18.58924832 -18.49960008 16.47379103 -16.42578125 14.35546875 C-14.72148124 12.63268678 -13.01705072 10.91003392 -11.3125 9.1875 C-10.44560547 8.30384766 -9.57871094 7.42019531 -8.68554688 6.50976562 C-7.85732422 5.67509766 -7.02910156 4.84042969 -6.17578125 3.98046875 C-5.42208252 3.21629639 -4.66838379 2.45212402 -3.8918457 1.66479492 C-2 0 -2 0 0 0 Z " fill="#CE00FD" transform="translate(117,617)"/>
<path d="M0 0 C0.70303582 3.52184747 0.77263873 6.48059514 0 10 C-2.89857431 14.15462318 -6.52640867 17.47314055 -10.25 20.875 C-11.23014722 21.80489157 -12.20803598 22.73716973 -13.18359375 23.671875 C-14.98396408 25.3853309 -16.79443612 27.08828185 -18.61816406 28.77685547 C-20.79391488 30.80764544 -22.90933847 32.88213206 -25 35 C-26.20963826 23.8276466 -26.20963826 23.8276466 -23.74609375 20.10546875 C-21.9375 18.625 -21.9375 18.625 -19.76953125 17.09765625 C-15.08901167 13.55260828 -11.18293828 9.18735299 -7.10522461 4.97705078 C-6.47495361 4.33622559 -5.84468262 3.69540039 -5.1953125 3.03515625 C-4.62828613 2.4512915 -4.06125977 1.86742676 -3.47705078 1.26586914 C-2 0 -2 0 0 0 Z " fill="#8840FB" transform="translate(835,473)"/>
<path d="M0 0 C0.99 2.31 1.98 4.62 3 7 C-4.59 14.59 -12.18 22.18 -20 30 C-24 25 -24 25 -24 21 C-22.7421875 19.5703125 -22.7421875 19.5703125 -20.875 18.125 C-15.80256723 13.97399836 -11.30067427 9.3287334 -6.74951172 4.62353516 C-6.16443848 4.02718262 -5.57936523 3.43083008 -4.9765625 2.81640625 C-4.45143066 2.27443604 -3.92629883 1.73246582 -3.38525391 1.17407227 C-2 0 -2 0 0 0 Z " fill="#477FFD" transform="translate(263,351)"/>
<path d="M0 0 C2.44694868 0.82451532 4.64150068 1.6801927 6.875 2.96875 C3.07667562 7.61114647 -0.93926996 12.05152233 -5.0625 16.40625 C-5.55202148 16.95055664 -6.04154297 17.49486328 -6.54589844 18.05566406 C-9.29277776 20.90032288 -10.8628324 21.93074263 -14.81640625 22.50390625 C-18.125 21.96875 -18.125 21.96875 -20.0625 20.46875 C-20.413125 19.97375 -20.76375 19.47875 -21.125 18.96875 C-17.30786012 14.30335681 -13.26962535 9.84405951 -9.125 5.46875 C-8.37814941 4.63972168 -8.37814941 4.63972168 -7.61621094 3.79394531 C-5.03447869 1.12091409 -3.7924299 -0.0379243 0 0 Z " fill="#3F84FA" transform="translate(249.125,341.03125)"/>
<path d="M0 0 C0.83660156 0.17402344 1.67320312 0.34804688 2.53515625 0.52734375 C1.85195313 1.2028125 1.16875 1.87828125 0.46484375 2.57421875 C-1.65698917 4.69157208 -3.72029902 6.85538674 -5.76953125 9.04296875 C-6.95939424 10.28799095 -8.14950254 11.53277875 -9.33984375 12.77734375 C-9.92636719 13.41414062 -10.51289062 14.0509375 -11.1171875 14.70703125 C-14.18219749 17.87308552 -15.85236628 19.37279336 -20.2265625 20.4765625 C-23.1773685 20.52283569 -25.62507094 20.30182724 -28.46484375 19.52734375 C-23.12149273 7.8976974 -13.0689169 -1.5196415 0 0 Z " fill="#C400F1" transform="translate(854.46484375,630.47265625)"/>
<path d="M0 0 C-4.92143158 7.62095102 -12.3313247 15.7180324 -21 19 C-24.75 18.625 -24.75 18.625 -28 18 C-28 13.69167415 -25.82123558 12.19685955 -22.96875 9.140625 C-20.99629845 7.07356389 -20.99629845 7.07356389 -19.46875 4.921875 C-14.21835478 -1.66790676 -7.88200518 -0.6887189 0 0 Z " fill="#C300EF" transform="translate(259,631)"/>
<path d="M0 0 C2.28515625 0.78466797 2.28515625 0.78466797 3.9375 1.5078125 C3.9375 4.5078125 3.9375 4.5078125 2.71582031 6.10180664 C2.15475586 6.65989014 1.59369141 7.21797363 1.015625 7.79296875 C0.40203125 8.40591797 -0.2115625 9.01886719 -0.84375 9.65039062 C-1.4934375 10.28396484 -2.143125 10.91753906 -2.8125 11.5703125 C-3.44671875 12.20775391 -4.0809375 12.84519531 -4.734375 13.50195312 C-11.61661991 20.30533898 -11.61661991 20.30533898 -16.421875 20.703125 C-17.60523438 20.66832031 -17.60523438 20.66832031 -18.8125 20.6328125 C-19.61171875 20.61476563 -20.4109375 20.59671875 -21.234375 20.578125 C-21.83765625 20.55492187 -22.4409375 20.53171875 -23.0625 20.5078125 C-22.15445366 14.89400517 -17.8711626 11.56391941 -14.0625 7.6328125 C-13.33160156 6.82328125 -12.60070312 6.01375 -11.84765625 5.1796875 C-5.61184229 -1.24243374 -5.61184229 -1.24243374 0 0 Z " fill="#AA1EF9" transform="translate(399.0625,547.4921875)"/>
<path d="M0 0 C1.0209375 0.2784375 1.0209375 0.2784375 2.0625 0.5625 C-1.787926 5.26857622 -5.89898634 9.63360613 -10.1875 13.9375 C-10.71891602 14.47342773 -11.25033203 15.00935547 -11.79785156 15.56152344 C-16.79833404 20.54285921 -16.79833404 20.54285921 -21.5625 20.625 C-22.67625 20.604375 -23.79 20.58375 -24.9375 20.5625 C-25.6237793 18.80566406 -25.6237793 18.80566406 -25.9375 16.5625 C-24.03145226 13.41598313 -21.33554753 10.91416404 -18.75 8.3125 C-18.02490234 7.57902344 -17.29980469 6.84554687 -16.55273438 6.08984375 C-11.24798696 1.06036467 -7.51442918 -1.1191703 0 0 Z " fill="#CE00FC" transform="translate(135.9375,629.4375)"/>
<path d="M0 0 C-3.71128332 4.51372296 -7.62906119 8.73787154 -11.75 12.875 C-12.23380127 13.36331299 -12.71760254 13.85162598 -13.21606445 14.35473633 C-17.83710923 18.95634794 -17.83710923 18.95634794 -21.6015625 19.09765625 C-23.09816406 19.08025391 -23.09816406 19.08025391 -24.625 19.0625 C-25.62789062 19.05347656 -26.63078125 19.04445313 -27.6640625 19.03515625 C-28.43492187 19.02355469 -29.20578125 19.01195312 -30 19 C-28.04759186 16.61372339 -26.04365557 14.30772342 -24 12 C-23.58137695 11.50193848 -23.16275391 11.00387695 -22.73144531 10.49072266 C-15.89666384 2.42974366 -11.27779793 -2.15957833 0 0 Z " fill="#C800F5" transform="translate(592,627)"/>
<path d="M0 0 C1.41907628 9.40138038 1.41907628 9.40138038 -0.20239258 11.7175293 C-11.71188378 24.34625251 -11.71188378 24.34625251 -17.4453125 25.984375 C-20.12427308 25.94240695 -22.42471378 25.72279343 -25 25 C-22.91551816 20.70075621 -20.11322121 18.24899313 -16.53515625 15.24609375 C-12.61072665 11.76913378 -8.97200142 8.01285488 -5.30517578 4.26757812 C-1.10123698 0 -1.10123698 0 0 0 Z " fill="#D000FE" transform="translate(830,622)"/>
<path d="M0 0 C0.99 0.66 1.98 1.32 3 2 C4.9896995 2.39013716 6.99019869 2.73202649 9 3 C-3.66666667 18.33333333 -3.66666667 18.33333333 -9 21 C-10.87379605 21.07033769 -12.75001102 21.0843022 -14.625 21.0625 C-15.62789062 21.05347656 -16.63078125 21.04445313 -17.6640625 21.03515625 C-18.43492187 21.02355469 -19.20578125 21.01195312 -20 21 C-15.76183463 15.93376232 -11.32591037 11.19961931 -6.625 6.5625 C-5.98433594 5.92634766 -5.34367188 5.29019531 -4.68359375 4.63476562 C-3.12469121 3.08749668 -1.56348584 1.54263508 0 0 Z " fill="#CB00FA" transform="translate(532,627)"/>
<path d="M0 0 C-1.95710237 2.38025964 -3.9620765 4.68956347 -6 7 C-6.78890625 7.95003906 -7.5778125 8.90007813 -8.390625 9.87890625 C-13.0891441 15.26492795 -16.6661694 18.63855757 -24.1875 19.1875 C-26.12597496 19.17621668 -28.06600612 19.13221262 -30 19 C-28.04759186 16.61372339 -26.04365557 14.30772342 -24 12 C-23.58137695 11.50193848 -23.16275391 11.00387695 -22.73144531 10.49072266 C-15.89666384 2.42974366 -11.27779793 -2.15957833 0 0 Z " fill="#CE00FD" transform="translate(686,632)"/>
<path d="M0 0 C0.99 0.33 1.98 0.66 3 1 C0.8372794 5.79185846 -2.5603089 9.08017293 -6.1875 12.8125 C-6.83525391 13.51826172 -7.48300781 14.22402344 -8.15039062 14.95117188 C-10.02500588 16.87447844 -11.74712341 18.53599806 -14 20 C-17.6427022 20.01104965 -19.77902315 19.61048842 -23 18 C-20.91646814 13.42061629 -17.79404959 10.31487492 -14.3125 6.75 C-13.71244141 6.1003125 -13.11238281 5.450625 -12.49414062 4.78125 C-8.43140548 0.62687421 -6.07014477 -0.91015472 0 0 Z " fill="#AB1BF7" transform="translate(516,553)"/>
<path d="M0 0 C2.68359375 0.69140625 2.68359375 0.69140625 4.5625 1.4375 C2.60522928 3.81796439 0.60308481 6.1290392 -1.4375 8.4375 C-2.24960938 9.39914062 -3.06171875 10.36078125 -3.8984375 11.3515625 C-10.70511803 19.05157332 -10.70511803 19.05157332 -15.59375 20.140625 C-18.29741093 20.1266886 -20.7849352 19.94543794 -23.4375 19.4375 C-19.65731658 11.15312224 -9.79703872 -1.04603799 0 0 Z " fill="#5C66F8" transform="translate(121.4375,399.5625)"/>
<path d="M0 0 C-12.05454545 14.52727273 -12.05454545 14.52727273 -17 17 C-18.87379605 17.07033769 -20.75001102 17.0843022 -22.625 17.0625 C-23.62789062 17.05347656 -24.63078125 17.04445313 -25.6640625 17.03515625 C-26.43492187 17.02355469 -27.20578125 17.01195312 -28 17 C-23.19519574 5.09115999 -12.64553399 -2.42148523 0 0 Z " fill="#CC00FA" transform="translate(162,631)"/>
<path d="M0 0 C0.69222656 0.17402344 1.38445313 0.34804688 2.09765625 0.52734375 C-12.82201588 18.58799949 -12.82201588 18.58799949 -21.90234375 19.52734375 C-23.22234375 19.52734375 -24.54234375 19.52734375 -25.90234375 19.52734375 C-24.60893985 12.26184022 -17.29327267 6.56358304 -11.92675781 1.93505859 C-8.05015852 -0.7606085 -4.51031829 -0.62395708 0 0 Z " fill="#C700F4" transform="translate(562.90234375,628.47265625)"/>
<path d="M0 0 C1.10794922 0.20882812 1.10794922 0.20882812 2.23828125 0.421875 C0.28570637 2.80835541 -1.71573742 5.11584371 -3.76171875 7.421875 C-4.18565918 7.91993652 -4.60959961 8.41799805 -5.04638672 8.93115234 C-13.62560961 18.91179803 -13.62560961 18.91179803 -18.984375 20.19140625 C-21.68334922 20.17399351 -24.12510578 19.98241476 -26.76171875 19.421875 C-25.44945157 17.86134106 -24.12859193 16.307697 -22.78125 14.77734375 C-21.24822785 12.98931211 -19.77677699 11.14827075 -18.3359375 9.28515625 C-12.92709476 2.54156035 -9.1868551 -0.98055378 0 0 Z " fill="#C500F2" transform="translate(707.76171875,630.578125)"/>
<path d="M0 0 C4.29 0 8.58 0 13 0 C0.33333333 15.33333333 0.33333333 15.33333333 -5 18 C-6.87379605 18.07033769 -8.75001102 18.0843022 -10.625 18.0625 C-11.62789062 18.05347656 -12.63078125 18.04445313 -13.6640625 18.03515625 C-14.43492187 18.02355469 -15.20578125 18.01195312 -16 18 C-11.86596566 13.01795861 -7.49524962 8.43340038 -2.85546875 3.91796875 C-0.93978207 2.12995862 -0.93978207 2.12995862 0 0 Z " fill="#CE00FC" transform="translate(220,632)"/>
<path d="M0 0 C0.61736596 9.79211008 0.61736596 9.79211008 -1.4375 13.8125 C-8.9722167 20.24457524 -14.21178203 23.13983169 -24 23 C-19.48548042 17.59819276 -14.72464159 12.54169712 -9.75 7.5625 C-9.03070312 6.83095703 -8.31140625 6.09941406 -7.5703125 5.34570312 C-6.88195312 4.65541016 -6.19359375 3.96511719 -5.484375 3.25390625 C-4.86272461 2.62814697 -4.24107422 2.0023877 -3.60058594 1.35766602 C-2 0 -2 0 0 0 Z " fill="#6C50ED" transform="translate(532,435)"/>
<path d="M0 0 C-1.3291731 1.60899901 -2.6691592 3.20970918 -4.046875 4.77734375 C-5.46299806 6.38889179 -6.8442199 8.03132537 -8.203125 9.69140625 C-14.37301549 16.68726595 -14.37301549 16.68726595 -19.3125 17.63671875 C-22.27462102 17.62623955 -25.07479996 17.45235052 -28 17 C-26.09301536 14.2554378 -24.07397587 11.6204384 -22 9 C-21.35804688 8.16339844 -20.71609375 7.32679688 -20.0546875 6.46484375 C-13.99222926 -0.5931104 -9.04898708 -1.13287164 0 0 Z " fill="#AB1DF9" transform="translate(474,552)"/>
<path d="M0 0 C0.94746094 0.24363281 0.94746094 0.24363281 1.9140625 0.4921875 C-1.34090001 7.56962459 -7.7464815 14.03545854 -14.0859375 18.4921875 C-18.05475452 19.56832097 -21.11852007 19.51238055 -25.0859375 18.4921875 C-20.67746835 8.90661994 -11.11830015 -1.57001933 0 0 Z " fill="#5963EF" transform="translate(146.0859375,400.5078125)"/>
<path d="M0 0 C0 0.66 0 1.32 0 2 C-1.3984375 3.375 -1.3984375 3.375 -3.375 5 C-7.82230628 8.72846992 -11.70187537 12.86797294 -15.60546875 17.15625 C-18 19 -18 19 -20.61328125 18.90625 C-23 18 -23 18 -26 16 C-21.39245288 4.83347404 -11.96483472 -2.29113856 0 0 Z " fill="#6F56FA" transform="translate(809,435)"/>
<path d="M0 0 C0.71542969 0.15082031 1.43085938 0.30164063 2.16796875 0.45703125 C-1.49070798 4.90677321 -5.31992522 9.2009969 -9.26953125 13.39453125 C-10.15511719 14.35230469 -11.04070312 15.31007813 -11.953125 16.296875 C-15.5228837 18.97540494 -17.4663579 18.96176345 -21.83203125 18.45703125 C-22.49203125 18.12703125 -23.15203125 17.79703125 -23.83203125 17.45703125 C-22.56169942 10.78937366 -16.6811575 5.90492683 -11.66015625 1.66845703 C-7.92555252 -0.80631643 -4.27856059 -0.50368566 0 0 Z " fill="#AA1DF7" transform="translate(446.83203125,550.54296875)"/>
<path d="M0 0 C1.07894531 0.04640625 2.15789063 0.0928125 3.26953125 0.140625 C4.35621094 0.17671875 5.44289063 0.2128125 6.5625 0.25 C7.39394531 0.29640625 8.22539063 0.3428125 9.08203125 0.390625 C5.37074793 4.90434796 1.45297006 9.12849654 -2.66796875 13.265625 C-3.15177002 13.75393799 -3.63557129 14.24225098 -4.1340332 14.74536133 C-7.67036814 18.26682469 -7.67036814 18.26682469 -9.91796875 19.390625 C-11.46409889 19.30410869 -13.00706262 19.15059864 -14.54296875 18.953125 C-15.36023438 18.85128906 -16.1775 18.74945312 -17.01953125 18.64453125 C-17.64601563 18.56074219 -18.2725 18.47695313 -18.91796875 18.390625 C-15.29738518 14.0635861 -11.5949845 9.98067006 -7.53125 6.06640625 C-5.82231322 4.41551395 -5.82231322 4.41551395 -4.59765625 2.19921875 C-2.91796875 0.390625 -2.91796875 0.390625 0 0 Z " fill="#CE00FD" transform="translate(869.91796875,631.609375)"/>
<path d="M0 0 C-3.87890889 4.65469066 -7.91396506 8.98640026 -12.265625 13.203125 C-14.18645107 15.08604947 -14.18645107 15.08604947 -16 18 C-18.8203125 18.29296875 -18.8203125 18.29296875 -22.125 18.1875 C-23.22070312 18.16042969 -24.31640625 18.13335938 -25.4453125 18.10546875 C-26.70988281 18.05326172 -26.70988281 18.05326172 -28 18 C-27.38511719 17.29423828 -27.38511719 17.29423828 -26.7578125 16.57421875 C-26.21898437 15.95160156 -25.68015625 15.32898438 -25.125 14.6875 C-24.59132813 14.07261719 -24.05765625 13.45773437 -23.5078125 12.82421875 C-21.8359553 10.86501788 -21.8359553 10.86501788 -20 8 C-19.34 8 -18.68 8 -18 8 C-17.6596875 7.13375 -17.6596875 7.13375 -17.3125 6.25 C-13.09118298 -0.98654346 -7.58639221 -0.47830144 0 0 Z " fill="#CB00F9" transform="translate(331,630)"/>
<path d="M0 0 C-1.3291731 1.60899901 -2.6691592 3.20970918 -4.046875 4.77734375 C-5.46299806 6.38889179 -6.8442199 8.03132537 -8.203125 9.69140625 C-14.37301549 16.68726595 -14.37301549 16.68726595 -19.3125 17.63671875 C-22.27462102 17.62623955 -25.07479996 17.45235052 -28 17 C-26.6708269 15.39100099 -25.3308408 13.79029082 -23.953125 12.22265625 C-22.53700194 10.61110821 -21.1557801 8.96867463 -19.796875 7.30859375 C-13.58247452 0.26226547 -9.32500031 -1.44201036 0 0 Z " fill="#CC00FA" transform="translate(186,631)"/>
<path d="M0 0 C0.96486328 0.22623047 0.96486328 0.22623047 1.94921875 0.45703125 C-1.15974934 7.15718959 -6.97310989 13.28472836 -13.05078125 17.45703125 C-16.98342861 18.46575995 -20.11395901 18.38009378 -24.05078125 17.45703125 C-19.65973833 7.99386472 -10.96122124 -1.42292601 0 0 Z " fill="#C600F3" transform="translate(206.05078125,630.54296875)"/>
<path d="M0 0 C0.71542969 0.15082031 1.43085938 0.30164063 2.16796875 0.45703125 C-9.8865767 14.98430398 -9.8865767 14.98430398 -14.83203125 17.45703125 C-16.5390586 17.52699139 -18.24871128 17.54143279 -19.95703125 17.51953125 C-20.86710937 17.51050781 -21.7771875 17.50148438 -22.71484375 17.4921875 C-23.76285156 17.47478516 -23.76285156 17.47478516 -24.83203125 17.45703125 C-20.15404127 7.40194713 -11.5226774 -1.35648596 0 0 Z " fill="#AF1DFD" transform="translate(494.83203125,552.54296875)"/>
<path d="M0 0 C3.96 0 7.92 0 12 0 C-2.93403057 18.07803701 -2.93403057 18.07803701 -12 19 C-15 19.125 -15 19.125 -17 19 C-12.64292379 13.72564459 -7.96990282 8.91531621 -3.07421875 4.13671875 C-0.96237708 2.1765157 -0.96237708 2.1765157 0 0 Z " fill="#AA1DF8" transform="translate(415,550)"/>
<path d="M0 0 C0.96486328 0.22623047 0.96486328 0.22623047 1.94921875 0.45703125 C-9.38569705 16.77041987 -9.38569705 16.77041987 -16.07421875 18.0234375 C-18.79323097 18.01994263 -21.36443785 17.86374866 -24.05078125 17.45703125 C-19.65973833 7.99386472 -10.96122124 -1.42292601 0 0 Z " fill="#CB00F9" transform="translate(303.05078125,630.54296875)"/>
<path d="M0 0 C0.76183594 0.11601563 1.52367187 0.23203125 2.30859375 0.3515625 C0.34681622 2.72634583 -1.65635042 5.04029151 -3.69140625 7.3515625 C-4.79935547 8.68380859 -4.79935547 8.68380859 -5.9296875 10.04296875 C-12.16821469 17.03768105 -12.16821469 17.03768105 -16.78125 17.98828125 C-19.49126043 17.97781789 -22.02259112 17.80820387 -24.69140625 17.3515625 C-23.33247625 15.74872199 -21.96715647 14.15104468 -20.578125 12.57421875 C-19.22920978 10.98512401 -17.94633089 9.33902419 -16.7109375 7.66015625 C-11.57305256 1.08104311 -8.40491903 -0.73451227 0 0 Z " fill="#C800F5" transform="translate(279.69140625,630.6484375)"/>
<path d="M0 0 C1.50433594 0.01353516 1.50433594 0.01353516 3.0390625 0.02734375 C3.80992187 0.03894531 4.58078125 0.05054688 5.375 0.0625 C-6.05357143 13.77678571 -6.05357143 13.77678571 -10.625 16.0625 C-12.49879605 16.13283769 -14.37501102 16.1468022 -16.25 16.125 C-17.25289062 16.11597656 -18.25578125 16.10695313 -19.2890625 16.09765625 C-20.05992187 16.08605469 -20.83078125 16.07445312 -21.625 16.0625 C-8.16050864 -0.09488964 -8.16050864 -0.09488964 0 0 Z " fill="#5D68FB" transform="translate(168.625,400.9375)"/>
<path d="M0 0 C0.55945313 0.16242187 1.11890625 0.32484375 1.6953125 0.4921875 C-10.97135417 15.82552083 -10.97135417 15.82552083 -16.3046875 18.4921875 C-18.9770496 18.62634222 -21.62719238 18.53537291 -24.3046875 18.4921875 C-20.20018297 9.54358395 -10.51667471 -1.65696804 0 0 Z " fill="#CF00FF" transform="translate(730.3046875,631.5078125)"/>
<path d="M0 0 C0.55945313 0.16242187 1.11890625 0.32484375 1.6953125 0.4921875 C-0.26667384 2.8672236 -2.26510214 5.18444948 -4.3046875 7.4921875 C-5.05492187 8.36875 -5.80515625 9.2453125 -6.578125 10.1484375 C-13.75031329 18.02200698 -13.75031329 18.02200698 -19.9296875 18.6171875 C-21.38860904 18.62167649 -22.84956152 18.59745193 -24.3046875 18.4921875 C-20.20018297 9.54358395 -10.51667471 -1.65696804 0 0 Z " fill="#CF00FE" transform="translate(899.3046875,631.5078125)"/>
<path d="M0 0 C-1.18835041 7.06511457 -4.93159373 10.59504541 -10 15.4375 C-10.73734375 16.16904297 -11.4746875 16.90058594 -12.234375 17.65429688 C-17.70486111 23 -17.70486111 23 -20 23 C-17.60446813 16.38046265 -7.64423928 0 0 0 Z " fill="#3A8CFE" transform="translate(121,329)"/>
<path d="M0 0 C-1.375 1.5 -1.375 1.5 -3 3 C-3.66 3 -4.32 3 -5 3 C-5 3.66 -5 4.32 -5 5 C-5.66 5 -6.32 5 -7 5 C-7 5.66 -7 6.32 -7 7 C-7.66 7 -8.32 7 -9 7 C-9 7.66 -9 8.32 -9 9 C-9.66 9 -10.32 9 -11 9 C-11 9.66 -11 10.32 -11 11 C-12.65 11.33 -14.3 11.66 -16 12 C-12.93781614 6.06701878 -7.61212872 -2.53737624 0 0 Z " fill="#398EF8" transform="translate(233,344)"/>
</svg>
